<svg width="27" height="26" viewBox="0 0 27 26" fill="none" xmlns="http://www.w3.org/2000/svg">
<path d="M16.168 7.4552H10.8313C9.44966 7.4552 8.32642 8.55795 8.32642 9.91438V11.3278H18.6676V9.91438C18.6676 8.55795 17.5497 7.4552 16.168 7.4552Z" fill="#D5D5D6"/>
<path d="M2.72109 11.3278H6.50215V9.91438C6.50215 7.5691 8.44277 5.66388 10.8316 5.66388H16.1684C18.5572 5.66388 20.4979 7.5691 20.4979 9.91438V11.3278H24.2789C24.6428 11.3278 25.0014 11.3692 25.3441 11.452V3.08562C25.3441 1.38232 23.9361 0 22.2012 0H4.8041C3.06914 0 1.66113 1.38232 1.66113 3.08562V11.452C1.99863 11.3744 2.35723 11.3278 2.72109 11.3278Z" fill="#D5D5D6"/>
<path d="M27 15.7957C27 14.3202 25.7766 13.1242 24.2789 13.1242H19.5855H7.41445H2.72109C1.22344 13.119 0 14.3202 0 15.7957V21.1386H27V15.7957Z" fill="#D5D5D6"/>
<path d="M1.66113 22.9351V25.1043C1.66113 25.6013 2.07246 26 2.57344 26C3.07441 26 3.48574 25.5961 3.48574 25.1043V22.9351H1.66113Z" fill="#D5D5D6"/>
<path d="M23.5139 22.9351V25.1043C23.5139 25.6013 23.9252 26 24.4262 26C24.9325 26 25.3385 25.5961 25.3385 25.1043V22.9351H23.5139Z" fill="#D5D5D6"/>
</svg>
