<svg width="46" height="28" viewBox="0 0 46 28" fill="none" xmlns="http://www.w3.org/2000/svg">
<path d="M5.2381 8.45132C5.2381 6.14745 7.19099 4.27699 9.59637 4.27699H19.3727C20.885 4.27699 22.2306 5.02974 23.0046 6.15886C23.7905 5.02974 25.1242 4.27699 26.6365 4.27699H36.4128C38.8182 4.27699 40.7711 6.14745 40.7711 8.45132V8.64521H41.8666V4.57352C41.8666 2.05295 39.7232 0 37.0916 0H8.92953C6.28599 0 4.14258 2.05295 4.14258 4.57352V8.64521H5.2381V8.45132Z" fill="#D5D5D6"/>
<path d="M44.1781 10.5955H1.83381C0.821641 10.5955 0 11.3825 0 12.3405V22.5141C0 23.4835 0.821641 24.2705 1.83381 24.2705H2.59591L1.69091 26.6998C1.50039 27.2016 1.78618 27.7605 2.31012 27.943C2.41729 27.9772 2.53637 28 2.65545 28C3.07222 28 3.46518 27.7491 3.61998 27.3499L4.76314 24.2705H41.2726L42.4157 27.3499C42.5586 27.7491 42.9516 28 43.3803 28C43.4874 28 43.6065 27.9772 43.7256 27.943C44.2495 27.7605 44.5353 27.2016 44.3448 26.6998L43.4398 24.2705H44.2019C45.2141 24.2705 46.0357 23.4835 46.0357 22.5141V12.3405C46 11.3825 45.1784 10.5955 44.1781 10.5955Z" fill="#D5D5D6"/>
<path d="M26.6389 6.22736C25.3529 6.22736 24.3169 7.21962 24.3169 8.45139V8.64528H38.7373V8.45139C38.7373 7.23102 37.7013 6.22736 36.4153 6.22736H26.6389Z" fill="#D5D5D6"/>
<path d="M9.59864 6.22736C8.3245 6.22736 7.27661 7.21962 7.27661 8.45139V8.64528H21.697V8.45139C21.697 7.23102 20.661 6.22736 19.375 6.22736H9.59864Z" fill="#D5D5D6"/>
</svg>
