<svg width="45" height="34" viewBox="0 0 45 34" fill="none" xmlns="http://www.w3.org/2000/svg">
<path d="M7.49707 22.1999C2.39941 22.1999 0 22.0178 0 20.3528C0 19.9886 0 19.0781 3.33984 17.2396L0.158203 12.5395C-0.0878906 12.1752 -0.0439453 11.6809 0.272461 11.3688L2.14453 9.52165C2.42578 9.23548 2.86523 9.1661 3.22559 9.34821L10.3096 12.843L15.5127 10.2761C15.9785 10.0506 16.541 10.2327 16.7695 10.6924C16.998 11.152 16.8135 11.707 16.3477 11.9324L10.7227 14.7074C10.459 14.8375 10.1514 14.8375 9.8877 14.7074L2.99707 11.3081L2.14453 12.1492L5.4668 17.0662C5.61621 17.283 5.66016 17.5605 5.59863 17.812C5.52832 18.0634 5.36133 18.2802 5.12402 18.4016C4.02539 18.9653 2.91797 19.6417 2.30273 20.1187C3.62988 20.3528 6.45117 20.3528 7.50586 20.3528C13.7812 20.3528 43.1279 9.00134 43.1279 5.54993C43.1279 4.83017 41.3438 3.70283 36.5625 3.70283C31.6758 3.70283 25.7607 6.36509 25.708 6.39111C25.2334 6.6079 24.6797 6.39978 24.46 5.94017C24.2402 5.47189 24.4512 4.92556 24.917 4.70876C25.1719 4.59603 31.2627 1.84705 36.5625 1.84705C44.1826 1.84705 45 4.43126 45 5.54993C45 11.3688 12.4893 22.1999 7.49707 22.1999Z" fill="#E0B47B"/>
<path d="M17.8156 12.9471C17.6574 12.9471 17.4992 12.9037 17.3497 12.8257L4.21889 5.42857C3.964 5.28982 3.79701 5.03833 3.75307 4.74349C3.71791 4.45732 3.81459 4.17114 4.01674 3.96302L7.76967 0.268801C8.01576 0.0259881 8.36732 -0.0607306 8.70131 0.03466L27.4484 5.58466C27.8087 5.68872 28.0636 5.99224 28.1076 6.35646C28.1515 6.72068 27.9757 7.07622 27.6593 7.267L18.2814 12.817C18.1496 12.9037 17.9826 12.9471 17.8156 12.9471ZM6.214 4.42263L17.798 10.9526L24.882 6.76404L8.7101 1.96849L6.214 4.42263Z" fill="#E0B47B"/>
<path d="M36.562 6.46924C36.3159 6.46924 36.0698 6.37385 35.8852 6.19174C35.5249 5.82752 35.5337 5.24651 35.9028 4.89096C35.9907 4.80424 38.1352 2.77502 42.187 2.77502C42.7055 2.77502 43.1274 3.19127 43.1274 3.70292C43.1274 4.21456 42.7055 4.63081 42.187 4.63081C38.9438 4.63081 37.2827 6.15706 37.2124 6.21776C37.0278 6.38252 36.7993 6.46924 36.562 6.46924Z" fill="#E0B47B"/>
<path d="M32.8094 27.75C32.537 27.75 32.2645 27.6286 32.0799 27.4118L23.6424 17.2397C23.3172 16.8495 23.37 16.2598 23.7743 15.9389C24.1698 15.6181 24.7674 15.6701 25.0926 16.069L33.0643 25.6688L35.4725 24.4807L32.8446 14.1005C32.7215 13.6062 33.0204 13.1032 33.5301 12.9818C34.0311 12.8604 34.5409 13.1553 34.6639 13.6582L37.4764 24.7582C37.5819 25.1745 37.3797 25.6168 36.9842 25.8075L33.2313 27.6546C33.0995 27.7153 32.9588 27.75 32.8094 27.75Z" fill="#E0B47B"/>
<path d="M21.5596 33.3H0.94043C0.421875 33.3 0 32.8837 0 32.3721C0 31.8605 0.421875 31.4442 0.94043 31.4442H21.5684C22.0869 31.4442 22.5088 31.8605 22.5088 32.3721C22.5 32.8837 22.0781 33.3 21.5596 33.3Z" fill="#E0B47B"/>
</svg>
