<svg width="45" height="37" viewBox="0 0 45 37" fill="none" xmlns="http://www.w3.org/2000/svg">
<g clip-path="url(#clip0)">
<path d="M22.5002 3.04688C14.2127 3.04688 7.50024 9.86426 7.50024 18.2813C7.50024 26.6982 14.2127 33.5156 22.5002 33.5156C30.7877 33.5156 37.5002 26.6982 37.5002 18.2813C37.4909 9.87378 30.7784 3.0564 22.5002 3.04688ZM22.5002 31.9922C15.0471 31.9922 9.00024 25.8508 9.00024 18.2813C9.00024 10.7117 15.0471 4.57031 22.5002 4.57031C29.9534 4.57031 36.0002 10.7117 36.0002 18.2813C35.9909 25.8508 29.9534 31.9827 22.5002 31.9922Z" fill="#E0B47B"/>
<path d="M43.8653 0.142838C43.1809 -0.152328 42.384 0.009537 41.859 0.552262C40.0215 2.40895 38.9996 4.92262 38.9996 7.55055V17.5195C38.9996 18.4812 39.5996 19.3382 40.4996 19.6619V34.2774C40.4996 35.5437 41.5028 36.5625 42.7496 36.5625C43.9965 36.5625 44.9996 35.5437 44.9996 34.2774V1.87575C44.9996 1.11403 44.5496 0.428482 43.8653 0.142838ZM43.4996 34.2774C43.4996 34.6963 43.1621 35.0391 42.7496 35.0391C42.3371 35.0391 41.9996 34.6963 41.9996 34.2774V19.8047H43.4996V34.2774ZM41.2496 18.2813C40.8371 18.2813 40.4996 17.9385 40.4996 17.5195V7.55055C40.4903 5.32253 41.3621 3.18971 42.9184 1.62819C42.9746 1.56154 43.059 1.52345 43.1528 1.52345C43.1996 1.52345 43.2465 1.53297 43.2934 1.55202C43.4246 1.59962 43.509 1.73293 43.4996 1.87575V18.2813H41.2496Z" fill="#E0B47B"/>
<path d="M19.4999 15.9961C19.4999 14.3108 18.1593 12.9492 16.4999 12.9492C14.8405 12.9492 13.4999 14.3108 13.4999 15.9961C13.4999 17.6814 14.8405 19.043 16.4999 19.043C18.1593 19.043 19.4999 17.6814 19.4999 15.9961ZM16.4999 17.5195C15.6749 17.5195 14.9999 16.834 14.9999 15.9961C14.9999 15.1582 15.6749 14.4727 16.4999 14.4727C17.3249 14.4727 17.9999 15.1582 17.9999 15.9961C17.9999 16.834 17.3249 17.5195 16.4999 17.5195Z" fill="#E0B47B"/>
<path d="M18.243 22.9182L20.3149 20.814C20.4742 20.6521 20.6899 20.5664 20.9055 20.5664C22.1992 20.5664 23.2492 19.5 23.2492 18.186V15.1392C23.2492 14.5107 23.0055 13.9014 22.5649 13.4539L21.243 12.1113C21.0836 11.9495 20.9992 11.7305 20.9992 11.5115C20.9992 10.1975 19.9492 9.1311 18.6555 9.1311H15.6555C15.0367 9.1311 14.4367 9.37866 13.9961 9.82617L11.1742 12.6921C10.7336 13.1396 10.4899 13.7395 10.4899 14.3774V17.6147C10.4899 18.2432 10.7336 18.8525 11.1742 19.3L12.4961 20.6426C12.6555 20.8044 12.7399 21.0234 12.7399 21.2424C12.7399 22.5564 13.7899 23.6228 15.0836 23.6228H16.5836C17.2117 23.6133 17.8024 23.3657 18.243 22.9182ZM14.2492 21.2329C14.2492 20.6045 14.0055 19.9951 13.5649 19.5476L12.243 18.2051C12.0836 18.0432 11.9992 17.8242 11.9992 17.6052V14.3774C11.9992 14.1489 12.0836 13.9299 12.243 13.7776L15.0649 10.9116C15.2242 10.7498 15.4399 10.6641 15.6555 10.6641H18.6555C19.1242 10.6641 19.4992 11.0449 19.4992 11.521C19.4992 12.1494 19.743 12.7588 20.1836 13.2063L21.5055 14.5488C21.6649 14.7107 21.7492 14.9297 21.7492 15.1487V18.1956C21.7492 18.6716 21.3742 19.0525 20.9055 19.0525C20.2867 19.0525 19.6867 19.3 19.2461 19.7476L17.1742 21.8518C17.0149 22.0137 16.7992 22.0994 16.5836 22.0994H15.0836C14.6242 22.0898 14.2492 21.709 14.2492 21.2329Z" fill="#E0B47B"/>
<path d="M26.7849 16.9769C26.4943 16.6817 26.0161 16.6817 25.7255 16.9769C25.5849 17.1197 25.5099 17.3101 25.5099 17.5196V19.043C25.5099 19.462 25.1724 19.8047 24.7599 19.8047C23.513 19.8047 22.5099 20.8235 22.5099 22.0899C22.5099 22.5089 22.1724 22.8516 21.7599 22.8516C20.513 22.8516 19.5099 23.8704 19.5099 25.1368C19.5099 25.5557 19.1724 25.8985 18.7599 25.8985H17.2599C16.8474 25.8985 16.5099 26.2413 16.5099 26.6602C16.5099 26.8602 16.5849 27.0601 16.7255 27.2029L19.7255 30.2498C19.8661 30.3926 20.0536 30.4688 20.2599 30.4688H21.7599C23.0068 30.4688 24.0099 29.45 24.0099 28.1837C24.0099 27.7647 24.3474 27.4219 24.7599 27.4219C26.0068 27.4219 27.0099 26.4031 27.0099 25.1368C27.0099 24.7178 27.3474 24.3751 27.7599 24.3751C29.0068 24.3751 30.0099 23.3563 30.0099 22.0899V20.5665C30.0099 20.3665 29.9349 20.1666 29.7943 20.0237L26.7849 16.9769ZM28.5005 22.0899C28.5005 22.5089 28.163 22.8516 27.7505 22.8516C26.5036 22.8516 25.5005 23.8704 25.5005 25.1368C25.5005 25.5557 25.163 25.8985 24.7505 25.8985C23.5036 25.8985 22.5005 26.9173 22.5005 28.1837C22.5005 28.6026 22.163 28.9454 21.7505 28.9454H20.5599L19.0411 27.4029C20.1661 27.2505 21.0005 26.2889 21.0005 25.1368C21.0005 24.7178 21.338 24.3751 21.7505 24.3751C22.9974 24.3751 24.0005 23.3563 24.0005 22.0899C24.0005 21.671 24.338 21.3282 24.7505 21.3282C25.8849 21.3282 26.8318 20.4808 26.9818 19.3382L28.5005 20.8807V22.0899Z" fill="#E0B47B"/>
<path d="M26.6531 6.95068C25.5281 5.80811 23.7094 5.80811 22.5938 6.95068C21.4687 8.09326 21.4687 9.94043 22.5938 11.0735L22.725 11.2068L26.475 15.0154L29.6063 18.1956C30.7313 19.3381 32.55 19.3381 33.6656 18.1956C34.7813 17.053 34.7906 15.2058 33.6656 14.0728L33.5344 13.9395L29.7844 10.1309L26.6531 6.95068ZM24.6188 7.61719C24.9844 7.61719 25.3313 7.76001 25.5844 8.02661L27.4313 9.90234H23.5594C23.0719 9.31201 23.1563 8.43604 23.7375 7.94092C23.9906 7.73145 24.3 7.61719 24.6188 7.61719ZM31.6313 17.5195C31.2656 17.5195 30.9188 17.3672 30.6656 17.1101L28.8094 15.2344H32.6813C33.1688 15.8247 33.0844 16.7007 32.5031 17.1958C32.2594 17.4053 31.95 17.5195 31.6313 17.5195ZM27.3094 13.7109L25.0594 11.4258H28.9406L31.1906 13.7109H27.3094Z" fill="#E0B47B"/>
<path d="M7.5 9.90234V0H6V6.09375H4.5V0H3V6.09375H1.5V0H0V9.90234C0 11.0925 0.5625 12.2161 1.5 12.9302V34.2773C1.5 35.5437 2.50312 36.5625 3.75 36.5625C4.99687 36.5625 6 35.5437 6 34.2773V12.9302C6.9375 12.2161 7.5 11.0925 7.5 9.90234ZM4.5 13.7109V34.2773C4.5 34.6963 4.1625 35.0391 3.75 35.0391C3.3375 35.0391 3 34.6963 3 34.2773V13.7109H4.5ZM6 9.90234C6 11.1687 4.99687 12.1875 3.75 12.1875C2.50312 12.1875 1.5 11.1687 1.5 9.90234V7.61719H6V9.90234Z" fill="#E0B47B"/>
</g>
<defs>
<clipPath id="clip0">
<rect width="45" height="36.5625" fill="white"/>
</clipPath>
</defs>
</svg>
