<svg width="20" height="21" viewBox="0 0 20 21" fill="none" xmlns="http://www.w3.org/2000/svg">
<path d="M7.22619 11.4114C7.22619 11.1518 7.01671 10.9399 6.7601 10.9399H5.14187C4.88526 10.9399 4.67578 11.1518 4.67578 11.4114V13.0484C4.67578 13.308 4.88526 13.5199 5.14187 13.5199H6.7601C7.01671 13.5199 7.22619 13.308 7.22619 13.0484V11.4114Z" fill="#E0B47B"/>
<path d="M11.275 11.4114C11.275 11.1518 11.0655 10.9399 10.8089 10.9399H9.1907C8.93409 10.9399 8.72461 11.1518 8.72461 11.4114V13.0484C8.72461 13.308 8.93409 13.5199 9.1907 13.5199H10.8089C11.0655 13.5199 11.275 13.308 11.275 13.0484V11.4114Z" fill="#E0B47B"/>
<path d="M15.3238 11.4114C15.3238 11.1518 15.1144 10.9399 14.8578 10.9399H13.2395C12.9829 10.9399 12.7734 11.1518 12.7734 11.4114V13.0484C12.7734 13.308 12.9829 13.5199 13.2395 13.5199H14.8578C15.1144 13.5199 15.3238 13.308 15.3238 13.0484V11.4114Z" fill="#E0B47B"/>
<path d="M7.22619 15.5119C7.22619 15.2523 7.01671 15.0404 6.7601 15.0404H5.14187C4.88526 15.0404 4.67578 15.2523 4.67578 15.5119V17.1489C4.67578 17.4085 4.88526 17.6204 5.14187 17.6204H6.7601C7.01671 17.6204 7.22619 17.4085 7.22619 17.1489V15.5119Z" fill="#E0B47B"/>
<path d="M11.275 15.5119C11.275 15.2523 11.0655 15.0404 10.8089 15.0404H9.1907C8.93409 15.0404 8.72461 15.2523 8.72461 15.5119V17.1489C8.72461 17.4085 8.93409 17.6204 9.1907 17.6204H10.8089C11.0655 17.6204 11.275 17.4085 11.275 17.1489V15.5119Z" fill="#E0B47B"/>
<path d="M15.3238 15.5119C15.3238 15.2523 15.1144 15.0404 14.8578 15.0404H13.2395C12.9829 15.0404 12.7734 15.2523 12.7734 15.5119V17.1489C12.7734 17.4085 12.9829 17.6204 13.2395 17.6204H14.8578C15.1144 17.6204 15.3238 17.4085 15.3238 17.1489V15.5119Z" fill="#E0B47B"/>
<path d="M18.2194 2.30454V4.80509C18.2194 5.93881 17.3134 6.85003 16.1927 6.85003H14.9149C13.7942 6.85003 12.8777 5.93881 12.8777 4.80509V2.29395H7.12228V4.80509C7.12228 5.93881 6.20058 6.85003 5.0851 6.85003H3.80728C2.6918 6.85003 1.78057 5.93881 1.78057 4.80509V2.30454C0.801257 2.33633 0 3.15218 0 4.15876V18.823C0 19.8455 0.822205 20.6878 1.83294 20.6878H18.1671C19.1778 20.6878 20 19.8455 20 18.823V4.15876C20 3.15218 19.1935 2.33103 18.2194 2.30454ZM17.6224 17.9118C17.6224 18.3568 17.2663 18.7117 16.8316 18.7117H3.13171C2.6918 18.7117 2.34093 18.3515 2.34093 17.9118V10.336C2.34093 9.89095 2.69704 9.536 3.13171 9.536H16.8316C17.2715 9.536 17.6224 9.89625 17.6224 10.336V17.9118Z" fill="#E0B47B"/>
<path d="M3.80199 5.50968H5.0641C5.4464 5.50968 5.76062 5.19182 5.76062 4.80508V0.704603C5.76062 0.312568 5.4464 0 5.0641 0H3.80199C3.41969 0 3.10547 0.312568 3.10547 0.704603V4.80508C3.10547 5.19182 3.41445 5.50968 3.80199 5.50968Z" fill="#E0B47B"/>
<path d="M14.8996 5.50968H16.1618C16.5441 5.50968 16.8583 5.19711 16.8583 4.80508V0.704603C16.8583 0.317866 16.5493 0 16.1618 0H14.8996C14.5173 0 14.2031 0.312568 14.2031 0.704603V4.80508C14.2031 5.19182 14.5173 5.50968 14.8996 5.50968Z" fill="#E0B47B"/>
</svg>
