<svg width="45" height="45" viewBox="0 0 45 45" fill="none" xmlns="http://www.w3.org/2000/svg">
<g clip-path="url(#clip0)">
<path d="M4.20965 10.0161L8.70965 13.2339L13.2096 10.0161C14.0322 9.4355 14.5161 8.47986 14.5161 7.47582C14.5161 5.75808 13.1129 4.35486 11.3951 4.35486H11.1532C10.3185 4.35486 9.53223 4.68147 8.93949 5.27421L8.69755 5.51615L8.45562 5.27421C7.88707 4.68147 7.10078 4.35486 6.2661 4.35486H6.02417C4.30642 4.35486 2.9032 5.75808 2.9032 7.47582C2.9032 8.47986 3.39917 9.4355 4.20965 10.0161ZM6.02417 5.80647H6.2661C6.71368 5.80647 7.13707 5.97582 7.45158 6.29034L8.70965 7.5605L9.96771 6.30244C10.2822 5.98792 10.7056 5.81857 11.1532 5.81857H11.3951C12.3145 5.81857 13.0645 6.56857 13.0645 7.48792C13.0645 8.02018 12.7984 8.52824 12.3629 8.84276L8.70965 11.4436L5.05642 8.84276C4.62094 8.52824 4.35481 8.02018 4.35481 7.48792C4.35481 6.55647 5.10481 5.80647 6.02417 5.80647Z" fill="#E0B47B"/>
<path d="M32.6623 11.6129C29.3477 11.6129 25.7308 16.754 25.4284 19.2702L24.6058 20.0928C24.1461 20.5524 23.7953 21.0847 23.5655 21.6653C23.0695 21.2782 22.4526 21.0363 21.7752 21.0363H20.4929L19.0413 20.3105H7.98485C6.78726 20.3105 5.80743 21.2903 5.80743 22.4879V25.3911C5.80743 26.5887 6.78726 27.5686 7.98485 27.5686H8.73485C8.27517 28.1492 7.91226 28.8024 7.70662 29.5403L5.37194 37.7419H2.9042C2.03323 37.7419 1.22275 38.129 0.666296 38.7944C0.109845 39.4718 -0.107897 40.3428 0.0614578 41.2137C0.31549 42.5686 1.54936 43.5484 2.98888 43.5484H7.42839C8.86791 43.5484 10.1744 42.7016 10.755 41.3831L11.2873 40.1734C12.9566 43.0887 16.1018 45 19.6098 45C22.1381 44.9516 24.5816 44.1532 26.6744 42.6774L34.126 36.8226C35.4324 35.9032 36.2066 34.4516 36.2671 32.8549C36.2671 32.7944 36.2671 32.7339 36.2671 32.6734H36.2792V31.9476C36.2792 30.8226 37.6824 30.0363 39.3155 29.129C41.8558 27.7016 45.001 25.9476 45.001 21.7742C45.001 14.1774 41.8921 11.6129 32.6623 11.6129ZM25.6219 21.121L26.8558 19.8871V19.5968C26.8558 18.3871 28.1865 16.1613 29.759 14.6492V14.9153C29.759 17.1774 31.2106 19.1371 33.376 19.7782L35.7469 20.4919C36.4969 20.7218 37.005 21.3992 37.005 22.1855C37.005 23.1653 36.2066 23.9516 35.2389 23.9516H33.6058L32.2026 27.7016C31.8881 27.6411 31.5494 27.6049 31.2107 27.5928V27.5807C29.0937 27.5807 27.3397 26.8186 26.251 26.1895C25.2832 25.6331 24.6784 24.5686 24.6784 23.4194C24.6784 22.5605 25.0292 21.7258 25.6219 21.121ZM19.5977 27.3024L20.4929 26.8548H21.7752C22.634 26.8548 23.3961 26.4798 23.9284 25.875C24.3155 26.5161 24.8598 27.0605 25.5252 27.4355C25.8881 27.6411 26.3115 27.8589 26.7953 28.0645C25.8881 28.2823 24.9929 28.5605 24.1219 28.9234L20.505 30.3992C20.1179 30.5928 19.6098 30.2782 19.6098 29.8428V27.3024H19.5977ZM23.2268 23.9516C23.2268 24.75 22.5736 25.4032 21.7752 25.4032H21.0494V22.5H21.7752C22.5736 22.5 23.2268 23.1532 23.2268 23.9516ZM7.25904 25.4032V22.5C7.25904 22.1008 7.58565 21.7742 7.98485 21.7742H18.7026L19.5977 22.2218V24.7621C19.5977 23.3226 18.6179 22.0887 17.2631 21.8347C16.3921 21.6653 15.5211 21.8831 14.8437 22.4395C14.1663 22.996 13.7913 23.8065 13.7913 24.6774V25.4395C13.5977 25.4153 13.3921 25.4032 13.1986 25.4032C12.2066 25.4032 11.2631 25.6694 10.4405 26.129H7.98485C7.58565 26.129 7.25904 25.8024 7.25904 25.4032ZM33.2792 35.6492L25.8276 41.504C23.9889 42.7984 21.8357 43.5 19.6098 43.5484C15.751 43.5484 12.4002 40.8024 11.6381 37.0161L10.8881 33.254L9.46065 33.5444L10.2107 37.3065C10.2832 37.6694 10.38 38.0323 10.501 38.3831L9.43646 40.8024C9.08565 41.5887 8.31146 42.1089 7.44049 42.1089H2.98888C2.25097 42.1089 1.60984 41.6129 1.47678 40.9476C1.3921 40.5 1.50097 40.0766 1.7792 39.7258C2.05743 39.3871 2.46872 39.1936 2.9042 39.1936H6.46065L9.09775 29.9516C9.61791 28.125 11.2994 26.8548 13.1986 26.8548C13.3921 26.8548 13.5977 26.8669 13.7913 26.9032V29.8669C13.7913 33.0242 16.0776 35.6492 19.0776 36.1815C19.4163 36.7984 19.5977 37.4758 19.5977 38.1774V39.1936H21.0494V38.1774C21.0494 37.5121 20.9163 36.871 20.6986 36.254C21.5332 36.1936 22.3437 35.9758 23.0816 35.6129L26.4082 34.0161C27.2792 33.5928 28.259 33.375 29.2268 33.375H30.4848V31.9234H29.2268C28.0413 31.9234 26.8558 32.1895 25.7792 32.6976L22.4405 34.2944C21.751 34.6331 20.9768 34.8145 20.2147 34.8145C17.4687 34.8145 15.2429 32.5887 15.2429 29.8428V24.6774C15.2429 24.2419 15.4365 23.8307 15.7752 23.5524C16.1139 23.2742 16.5494 23.1653 16.9969 23.25C17.6623 23.3831 18.1582 24.0242 18.1582 24.7621V29.8669C18.1582 31.004 19.0897 31.9355 20.2268 31.9355C20.5413 31.9355 20.8679 31.8629 21.0977 31.7419L24.6663 30.2903C26.6986 29.4557 28.8397 29.0444 31.1018 29.0444C32.0211 29.0444 32.8679 29.3226 33.4727 29.8307C34.38 30.5807 34.876 31.6694 34.8397 32.8065C34.7913 33.9315 34.2348 34.9718 33.2792 35.6492ZM38.6139 27.8468C37.4163 28.5242 36.255 29.1653 35.5413 30.0242C35.2389 29.5282 34.8518 29.0807 34.38 28.6936C34.1381 28.4879 33.8598 28.3186 33.5695 28.1734L34.6098 25.4032H35.2389C37.0171 25.4032 38.4566 23.9516 38.4566 22.1855C38.4566 20.746 37.5373 19.5121 36.1582 19.1008L33.7873 18.3871C32.2389 17.9274 31.1986 16.5242 31.1986 14.9153V13.5363C31.6945 13.246 32.1905 13.0766 32.6502 13.0766C41.0937 13.0766 43.5373 15.0242 43.5373 21.7863C43.5494 25.0887 41.0453 26.4919 38.6139 27.8468Z" fill="#E0B47B"/>
<path d="M8.60136 17.4195L13.428 18.7985C13.5973 18.8469 13.7788 18.8711 13.9481 18.8711H14.0449C15.0973 18.8711 15.9562 18.0122 15.9562 16.9598C15.9562 16.6816 15.8957 16.3913 15.7747 16.1372L15.061 14.6372C16.5852 13.0284 17.4199 10.9356 17.4199 8.70982C17.4199 6.24207 16.3675 3.87111 14.5167 2.21385C12.678 0.568686 10.1981 -0.217604 7.71829 0.0606217C3.72636 0.496106 0.49652 3.72594 0.048939 7.71788C-0.229287 10.1977 0.5691 12.6776 2.21426 14.5163C3.84733 16.3308 6.16991 17.3953 8.60136 17.4195ZM1.50055 7.87514C1.86345 4.54852 4.54894 1.86304 7.88765 1.48804C8.16587 1.45175 8.4441 1.43965 8.72233 1.43965C10.5126 1.43965 12.2062 2.08078 13.5489 3.29046C15.0852 4.68159 15.9683 6.65336 15.9683 8.70982C15.9683 10.7179 15.1578 12.5808 13.6941 13.9719L13.307 14.3348L14.4562 16.7663C14.4804 16.8268 14.5046 16.8993 14.5046 16.9598C14.5046 17.2138 14.2989 17.4195 14.0449 17.4195H13.9481C13.8997 17.4195 13.8635 17.4074 13.8272 17.4074L8.90378 16.0042L8.71023 15.9679C6.65378 15.9679 4.682 15.0848 3.30297 13.5485C1.91184 11.988 1.27071 9.97998 1.50055 7.87514Z" fill="#E0B47B"/>
</g>
<defs>
<clipPath id="clip0">
<rect width="45" height="45" fill="white"/>
</clipPath>
</defs>
</svg>
