<svg width="45" height="45" viewBox="0 0 45 45" fill="none" xmlns="http://www.w3.org/2000/svg">
<g clip-path="url(#clip0)">
<path d="M44.712 31.0853L29.9594 19.6104C27.9739 18.0705 25.3017 17.7737 23.0285 18.8404L21.1636 16.9759C21.0244 16.8367 20.8388 16.7625 20.6347 16.7625C20.4398 16.7625 20.2543 16.846 20.1151 16.9759L3.36768 0.231913C3.08005 -0.0556571 2.60685 -0.0556571 2.31922 0.231913L0.213036 2.32839C-0.0745928 2.61596 -0.0745928 3.08906 0.213036 3.37663L16.9697 20.1299C16.6821 20.4174 16.6821 20.8905 16.9697 21.1781L18.8347 23.0427C17.7677 25.3154 18.0646 27.9963 19.6048 29.9722L31.0821 44.7217C31.212 44.8887 31.4068 44.9907 31.6203 45.0093H31.6666C31.8615 45.0093 32.0563 44.9351 32.1955 44.7959L34.8213 42.1707C35.0811 41.9109 35.1089 41.5121 34.9048 41.2152L32.2419 37.4954L35.9718 40.1577C36.2687 40.3711 36.6677 40.334 36.9275 40.0742L40.0728 36.9295C40.3326 36.6698 40.3605 36.2709 40.1563 35.974L37.4934 32.2542L41.2141 34.9165C41.511 35.1299 41.9099 35.0928 42.1697 34.833L44.7955 32.2078C44.944 32.0594 45.0275 31.846 45.0089 31.6327C44.9811 31.41 44.879 31.2059 44.712 31.0853ZM2.83881 1.96661L19.0666 18.1911L18.0182 19.2393L1.79036 3.01484L2.83881 1.96661ZM18.5471 20.8163L20.644 18.7199L21.7295 19.8052C21.5254 19.9629 19.7904 21.6976 19.6326 21.9017L18.5471 20.8163ZM41.5481 33.4879L34.7099 28.6085C34.413 28.3952 34.0141 28.4323 33.7543 28.692C33.4945 28.9518 33.4666 29.3507 33.6708 29.6475L38.5512 36.4842L36.2873 38.7477L29.4491 33.8683C29.1522 33.6549 28.7532 33.692 28.4934 33.9518C28.2337 34.2115 28.2058 34.6104 28.4099 34.9072L33.2904 41.744L31.7316 43.3024L20.7739 29.2208C19.1687 27.1521 19.3543 24.2115 21.2007 22.3562L22.1842 21.3729C24.0398 19.5269 26.9811 19.3414 29.0501 20.9462L43.1347 31.9017L41.5481 33.4879Z" fill="#E0B47B"/>
<path d="M22.5276 4.88873C23.7523 4.88873 24.7544 3.89615 24.7544 2.66238C24.7544 1.42861 23.7616 0.436035 22.5276 0.436035C21.2936 0.436035 20.3008 1.42861 20.3008 2.66238C20.3008 3.89615 21.2936 4.88873 22.5276 4.88873ZM22.5276 1.92027C22.9358 1.92027 23.2698 2.25422 23.2698 2.66238C23.2698 3.07054 22.9358 3.4045 22.5276 3.4045C22.1193 3.4045 21.7853 3.07054 21.7853 2.66238C21.7853 2.25422 22.1193 1.92027 22.5276 1.92027Z" fill="#E0B47B"/>
<path d="M40.3326 19.731C41.9749 19.731 43.3017 18.4045 43.3017 16.7625C43.3017 15.1206 41.9749 13.7941 40.3326 13.7941C38.6903 13.7941 37.3635 15.1206 37.3635 16.7625C37.3635 18.4045 38.6996 19.731 40.3326 19.731ZM40.3326 15.2783C41.1491 15.2783 41.8171 15.9462 41.8171 16.7625C41.8171 17.5789 41.1491 18.2468 40.3326 18.2468C39.5161 18.2468 38.8481 17.5789 38.8481 16.7625C38.8481 15.9369 39.5161 15.2783 40.3326 15.2783Z" fill="#E0B47B"/>
<path d="M3.22908 19.731C1.58681 19.731 0.26001 21.0575 0.26001 22.6994C0.26001 24.3413 1.58681 25.6679 3.22908 25.6679C4.87135 25.6679 6.19815 24.3413 6.19815 22.6994C6.19815 21.0575 4.87135 19.731 3.22908 19.731ZM3.22908 24.1836C2.41259 24.1836 1.74455 23.5157 1.74455 22.6994C1.74455 21.8831 2.41259 21.2152 3.22908 21.2152C4.04558 21.2152 4.71362 21.8831 4.71362 22.6994C4.71362 23.5157 4.05486 24.1836 3.22908 24.1836Z" fill="#E0B47B"/>
<path d="M16.5898 38.2747C15.3558 38.2747 14.363 39.2672 14.363 40.501C14.363 41.7348 15.3558 42.7273 16.5898 42.7273C17.8239 42.7273 18.8166 41.7348 18.8166 40.501C18.8166 39.2765 17.8146 38.2747 16.5898 38.2747ZM16.5898 41.2431C16.1816 41.2431 15.8476 40.9092 15.8476 40.501C15.8476 40.0928 16.1816 39.7589 16.5898 39.7589C16.9981 39.7589 17.3321 40.0928 17.3321 40.501C17.3321 40.9092 16.9981 41.2431 16.5898 41.2431Z" fill="#E0B47B"/>
</g>
<defs>
<clipPath id="clip0">
<rect width="45" height="45" fill="white"/>
</clipPath>
</defs>
</svg>
