<svg width="20" height="20" viewBox="0 0 20 20" fill="none" xmlns="http://www.w3.org/2000/svg">
    <path d="M10.0129 0C4.47877 0 0 4.47877 0 10.0129C0 15.5212 4.47877 20.0257 10.0129 20.0257C15.5212 20.0257 20.0257 15.547 20.0257 10.0129C20 4.47877 15.5212 0 10.0129 0ZM10.0129 17.8893C5.66281 17.8893 2.13642 14.3372 2.13642 10.0129C2.13642 5.66281 5.66281 2.13642 10.0129 2.13642C14.3629 2.13642 17.8893 5.66281 17.8893 10.0129C17.8893 14.3372 14.3372 17.8893 10.0129 17.8893Z" fill="#D5D5D6"/>
    <path d="M15.2121 9.70399H10.7333V4.29858C10.7333 3.83526 10.3729 3.4749 9.90962 3.4749C9.4463 3.4749 9.08594 3.83526 9.08594 4.29858V10.5277C9.08594 10.991 9.4463 11.3513 9.90962 11.3513H15.2378C15.7011 11.3513 16.0615 10.991 16.0615 10.5277C16.0357 10.0643 15.6754 9.70399 15.2121 9.70399Z" fill="#D5D5D6"/>
</svg>
