<svg width="45" height="32" viewBox="0 0 45 32" fill="none" xmlns="http://www.w3.org/2000/svg">
<path d="M42.7482 19.4976H2.25179C0.973987 19.4976 0 18.5236 0 17.2458V2.25179C0 0.973987 0.973987 0 2.25179 0H42.7482C44.026 0 45 0.973987 45 2.25179V17.2458C45 18.5236 44.026 19.4976 42.7482 19.4976ZM2.25179 1.50119C1.87649 1.50119 1.50119 1.805 1.50119 2.25179V17.2458C1.50119 17.6926 1.805 17.9964 2.25179 17.9964H42.7482C43.195 17.9964 43.4988 17.6926 43.4988 17.2458V2.25179C43.4988 1.805 43.195 1.50119 42.7482 1.50119H2.25179Z" fill="#E0B47B"/>
<path d="M25.502 6.74643H19.5062C19.0594 6.74643 18.7556 6.44262 18.7556 5.99583C18.7556 5.54905 19.0594 5.24524 19.5062 5.24524H25.502C25.9488 5.24524 26.2526 5.54905 26.2526 5.99583C26.2526 6.44262 25.9488 6.74643 25.502 6.74643Z" fill="#E0B47B"/>
<path d="M41.2473 16.5041H3.75328C3.3065 16.5041 3.00269 16.2003 3.00269 15.7535C3.00269 15.3067 3.3065 15.0029 3.75328 15.0029H41.2563C41.703 15.0029 42.0069 15.3067 42.0069 15.7535C42.0069 16.2003 41.703 16.5041 41.2473 16.5041Z" fill="#E0B47B"/>
<path d="M41.2473 13.5018H3.75328C3.3065 13.5018 3.00269 13.198 3.00269 12.7512C3.00269 12.3044 3.3065 12.0006 3.75328 12.0006H41.2563C41.703 12.0006 42.0069 12.3044 42.0069 12.7512C41.9979 13.198 41.703 13.5018 41.2473 13.5018Z" fill="#E0B47B"/>
<path d="M22.5003 29.997C22.1965 29.997 21.9731 29.8451 21.8212 29.6217C21.5978 29.2464 21.7497 28.7997 22.125 28.6478C22.8041 28.2725 23.2509 27.8257 23.2509 27.4504C23.2509 27.0751 22.8756 26.6283 22.125 26.253C20.9276 25.5024 20.2485 24.5999 20.2485 23.6259C20.2485 22.6519 20.9276 21.7494 22.125 21.0792C22.5003 20.8559 22.9471 21.0078 23.099 21.3831C23.2509 21.7584 23.1705 22.2051 22.7952 22.357C22.1965 22.8038 21.7408 23.2595 21.7408 23.6348C21.7408 24.0101 22.1161 24.4569 22.8667 24.8322C24.0641 25.4309 24.7432 26.4049 24.7432 27.3789C24.7432 28.3529 24.0641 29.2554 22.8667 29.9256C22.7237 29.997 22.6522 29.997 22.5003 29.997Z" fill="#E0B47B"/>
<path d="M14.2518 31.4981C13.948 31.4981 13.7246 31.3462 13.5727 31.1228C13.3493 30.7475 13.5012 30.3008 13.8765 30.1489C14.5556 29.7736 15.0024 29.3268 15.0024 28.9515C15.0024 28.5762 14.6271 28.1294 13.8765 27.7541C12.6791 27.0035 12 26.101 12 25.127C12 24.153 12.6791 23.2505 13.8765 22.5803C14.2518 22.357 14.6986 22.5089 14.8505 22.8842C15.0739 23.2595 14.922 23.7062 14.5467 23.8581C13.948 24.3049 13.4923 24.7606 13.4923 25.1359C13.4923 25.5112 13.8676 25.958 14.6181 26.3333C15.8155 26.932 16.4946 27.906 16.4946 28.88C16.4946 29.854 15.8155 30.7565 14.6181 31.4267C14.4752 31.4981 14.4037 31.4981 14.2518 31.4981Z" fill="#E0B47B"/>
<path d="M30.7472 31.4981C30.4433 31.4981 30.2199 31.3462 30.068 31.1228C29.8446 30.7475 29.9966 30.3008 30.3719 30.1489C31.051 29.7736 31.4977 29.3268 31.4977 28.9515C31.4977 28.5762 31.1224 28.1294 30.3719 27.7541C29.1745 27.0035 28.4954 26.101 28.4954 25.127C28.4954 24.153 29.1745 23.2505 30.3719 22.5803C30.7471 22.357 31.1939 22.5089 31.3458 22.8842C31.4977 23.2595 31.4173 23.7062 31.042 23.8581C30.4433 24.3049 29.9876 24.7606 29.9876 25.1359C29.9876 25.5112 30.3629 25.958 31.1135 26.3333C32.3109 26.932 32.99 27.906 32.99 28.88C32.99 29.854 32.3109 30.7565 31.1135 31.4267C30.9705 31.4981 30.8991 31.4981 30.7472 31.4981Z" fill="#E0B47B"/>
</svg>
