<svg width="45" height="38" viewBox="0 0 45 38" fill="none" xmlns="http://www.w3.org/2000/svg">
<path d="M42.7161 18.6322H31.2463C31.2903 18.3429 31.2463 18.0448 31.0969 17.7817C30.8596 17.3696 30.4202 17.1154 29.9456 17.1154H1.32838C0.853772 17.1154 0.414319 17.3696 0.177015 17.7817C-0.06029 18.1938 -0.0515009 18.7111 0.194593 19.1145L1.44264 21.1925C1.7151 21.6485 1.85573 22.1658 1.85573 22.6919V23.0426C1.85573 25.6467 3.9651 27.7598 6.56666 27.7598H24.7337C27.2737 27.7598 29.3479 25.7256 29.4358 23.1916H42.7161C43.9817 23.1916 45.0012 22.1658 45.0012 20.9119C45.0012 19.6581 43.9729 18.6322 42.7161 18.6322ZM24.7161 26.2429H6.55787C5.77565 26.2429 5.07252 25.9536 4.51881 25.4801H12.9651C13.387 25.4801 13.7297 25.1382 13.7297 24.7173C13.7297 24.2964 13.387 23.9545 12.9651 23.9545H3.51686C3.44655 23.709 3.39381 23.4547 3.38502 23.1916H10.135C10.5569 23.1916 10.8997 22.8497 10.8997 22.4288C10.8997 22.0079 10.5569 21.666 10.135 21.666H3.2444C3.13893 21.2276 2.98073 20.798 2.74342 20.4034L1.67994 18.6235H29.6028L28.5393 20.4034C28.4426 20.5612 28.3635 20.719 28.2932 20.8944C28.2493 20.9909 28.2141 21.0961 28.179 21.2013C28.1614 21.2627 28.135 21.324 28.1174 21.3854C28.0735 21.5257 28.0471 21.6572 28.012 21.7975C28.0032 21.8238 28.0032 21.8589 27.9944 21.8852C27.968 22.0343 27.9504 22.1921 27.9329 22.3499C27.9329 22.3587 27.9329 22.3674 27.9329 22.385L27.8801 23.2004H27.9065C27.801 24.8839 26.4212 26.2429 24.7161 26.2429ZM42.7161 21.6748H29.6204C29.6204 21.666 29.6292 21.6572 29.6292 21.6485C29.6907 21.4906 29.7522 21.3416 29.8401 21.2013C29.8401 21.2013 29.8401 21.1925 29.8489 21.1925L30.4729 20.1491H42.7161C43.1379 20.1491 43.4807 20.4911 43.4807 20.9119C43.4807 21.3328 43.1379 21.6748 42.7161 21.6748Z" fill="#E0B47B"/>
<path d="M28.9863 36.1333H25.2422C26.5693 35.125 27.3252 34.3884 27.4395 33.4941C27.5713 32.5121 26.9561 31.7317 25.9453 30.4253C25.752 30.171 25.5322 29.8992 25.3037 29.5923L24.8467 28.9873L24.2402 29.4432C22.8516 30.4866 22.0693 31.2319 21.9551 32.1526C21.8232 33.1346 22.4385 33.915 23.4492 35.2214C23.6426 35.4757 23.8623 35.7475 24.0908 36.0544L24.1523 36.1333H16.2861C17.6133 35.125 18.3691 34.3884 18.4834 33.4941C18.6152 32.5121 18 31.7317 16.9893 30.4253C16.7871 30.171 16.5762 29.8992 16.3477 29.5923L15.8906 28.9873L15.2842 29.4432C13.8955 30.4866 13.1133 31.2319 12.999 32.1526C12.8672 33.1346 13.4824 33.915 14.4932 35.2214C14.6953 35.4757 14.9062 35.7563 15.1348 36.0544L15.1963 36.1333H7.12793C8.45508 35.125 9.21094 34.3884 9.3252 33.4941C9.45703 32.5121 8.8418 31.7317 7.83105 30.4253C7.6377 30.171 7.41797 29.8904 7.18945 29.5923L6.73242 28.9873L6.12598 29.4432C4.7373 30.4866 3.95508 31.2319 3.84082 32.1526C3.70898 33.1346 4.32422 33.915 5.33496 35.2214C5.52832 35.4757 5.74805 35.7475 5.97656 36.0544L6.03809 36.1333H3.0498C2.62793 36.1333 2.28516 36.4752 2.28516 36.8961C2.28516 37.317 2.62793 37.6589 3.0498 37.6589H28.9863C29.4082 37.6589 29.751 37.317 29.751 36.8961C29.7422 36.4752 29.4082 36.1333 28.9863 36.1333ZM23.458 32.3455C23.502 32.0386 23.9941 31.5651 24.5566 31.1092C24.6182 31.1881 24.6797 31.267 24.7412 31.3459C25.4619 32.2666 25.9717 32.9329 25.9277 33.2837C25.8838 33.5905 25.3916 34.064 24.8291 34.52C24.7676 34.441 24.7061 34.3621 24.6445 34.2832C23.9238 33.3626 23.4141 32.6962 23.458 32.3455ZM14.4932 32.3455C14.5371 32.0386 15.0293 31.5651 15.5918 31.1092C15.6533 31.1881 15.7148 31.267 15.7764 31.3459C16.4971 32.2666 17.0156 32.9329 16.9629 33.2837C16.9189 33.5905 16.4268 34.064 15.8643 34.52C15.8027 34.441 15.7412 34.3621 15.6797 34.2832C14.9678 33.3626 14.4492 32.6962 14.4932 32.3455ZM5.34375 32.3455C5.3877 32.0386 5.87988 31.5651 6.44238 31.1092C6.50391 31.1881 6.56543 31.267 6.62695 31.3459C7.34766 32.2666 7.85742 32.9329 7.81348 33.2837C7.76953 33.5905 7.27734 34.064 6.71484 34.52C6.65332 34.441 6.5918 34.3621 6.53027 34.2832C5.80957 33.3626 5.2998 32.6962 5.34375 32.3455Z" fill="#E0B47B"/>
<path d="M7.0498 10.4429C7.0498 11.8633 7.60352 13.2048 8.61426 14.2044C8.76367 14.3534 8.95703 14.4236 9.15039 14.4236C9.34375 14.4236 9.53711 14.3447 9.68652 14.2044C9.98535 13.9063 9.98535 13.424 9.68652 13.1259C8.96582 12.4069 8.57031 11.4512 8.57031 10.4341C8.57031 9.417 8.96582 8.46128 9.68652 7.7423C10.6973 6.73397 11.251 5.40122 11.251 3.97203C11.251 2.5516 10.6973 1.21008 9.68652 0.210524C9.38769 -0.0875901 8.9043 -0.0875901 8.60547 0.210524C8.30664 0.508639 8.30664 0.990883 8.60547 1.289C9.32617 2.00798 9.72168 2.9637 9.72168 3.9808C9.72168 4.99789 9.32617 5.95361 8.60547 6.67259C7.60352 7.68969 7.0498 9.02244 7.0498 10.4429Z" fill="#E0B47B"/>
<path d="M16.3848 10.4429C16.3848 11.8633 16.9385 13.2048 17.9492 14.2044C18.0986 14.3534 18.292 14.4236 18.4854 14.4236C18.6787 14.4236 18.8721 14.3447 19.0215 14.2044C19.3203 13.9063 19.3203 13.424 19.0215 13.1259C18.3008 12.4069 17.9053 11.4512 17.9053 10.4341C17.9053 9.417 18.3008 8.46128 19.0215 7.7423C20.0322 6.73397 20.5859 5.40122 20.5859 3.97203C20.5859 2.5516 20.0322 1.21008 19.0215 0.210524C18.7227 -0.0875901 18.2393 -0.0875901 17.9404 0.210524C17.6416 0.508639 17.6416 0.990883 17.9404 1.289C18.6699 2.01675 19.0742 2.97247 19.0742 3.98956C19.0742 5.00666 18.6787 5.96238 17.958 6.68136C16.9473 7.68969 16.3848 9.02244 16.3848 10.4429Z" fill="#E0B47B"/>
</svg>
