<svg width="40" height="44" viewBox="0 0 40 44" fill="none" xmlns="http://www.w3.org/2000/svg">
<g clip-path="url(#clip0)">
<path d="M39.2802 43.038H0.711446C0.284578 43.038 0 42.7522 0 42.3235V0.714498C0 0.285799 0.284578 0 0.711446 0H39.2802C39.707 0 39.9916 0.285799 39.9916 0.714498V42.3151C40 42.7522 39.7154 43.038 39.2802 43.038ZM1.43126 41.6006H38.5687V1.4374H1.43126V41.6006Z" fill="#E0B47B"/>
<path d="M21.4273 7.17025H14.2877C13.0741 7.17025 12.145 6.2372 12.145 5.01835C12.145 3.79951 13.0741 2.86646 14.2877 2.86646H21.4273C22.6409 2.86646 23.57 3.79951 23.57 5.01835C23.57 6.2372 22.6409 7.17025 21.4273 7.17025ZM14.2877 4.30386C13.8609 4.30386 13.5763 4.58966 13.5763 5.01835C13.5763 5.44705 13.8609 5.73285 14.2877 5.73285H21.4273C21.8542 5.73285 22.1387 5.44705 22.1387 5.01835C22.1387 4.58966 21.8542 4.30386 21.4273 4.30386H14.2877Z" fill="#E0B47B"/>
<path d="M17.8532 43.0379H4.99697C4.5701 43.0379 4.28552 42.7521 4.28552 42.3234V9.32204C4.28552 8.89334 4.5701 8.60754 4.99697 8.60754H17.8532C18.2801 8.60754 18.5647 8.89334 18.5647 9.32204V42.315C18.573 42.7521 18.2885 43.0379 17.8532 43.0379ZM5.71678 41.6005H17.1418V10.0449H5.71678V41.6005Z" fill="#E0B47B"/>
<path d="M36.4262 24.3854C36.2086 24.3854 36.0663 24.3097 35.924 24.1668L34.995 23.2338L34.0659 24.1752C33.7813 24.461 33.3545 24.461 33.0699 24.1752C32.7853 23.8894 32.7853 23.4607 33.0699 23.1749L34.5011 21.7375C34.7857 21.4517 35.2126 21.4517 35.4972 21.7375L36.9284 23.1749C37.213 23.4607 37.213 23.8894 36.9284 24.1752C36.7861 24.3181 36.6438 24.3854 36.4262 24.3854Z" fill="#E0B47B"/>
<path d="M34.995 30.1266C34.7774 30.1266 34.6351 30.0509 34.4928 29.908L33.0616 28.4706C32.777 28.1848 32.777 27.7561 33.0616 27.4703C33.3462 27.1845 33.773 27.1845 34.0576 27.4703L34.9867 28.4034L35.9157 27.4703C36.2003 27.1845 36.6272 27.1845 36.9118 27.4703C37.1963 27.7561 37.1963 28.1848 36.9118 28.4706L35.4805 29.908C35.3549 30.0509 35.2127 30.1266 34.995 30.1266Z" fill="#E0B47B"/>
<path d="M30.709 43.0379H17.8528C17.4259 43.0379 17.1414 42.7521 17.1414 42.3234V9.32204C17.1414 8.89334 17.4259 8.60754 17.8528 8.60754H30.709C31.1359 8.60754 31.4205 8.89334 31.4205 9.32204V42.315C31.4289 42.7521 31.1443 43.0379 30.709 43.0379ZM18.5726 41.6005H29.9976V10.0449H18.5726V41.6005Z" fill="#E0B47B"/>
</g>
<defs>
<clipPath id="clip0">
<rect width="40" height="43.038" fill="white"/>
</clipPath>
</defs>
</svg>
