<svg width="45" height="36" viewBox="0 0 45 36" fill="none" xmlns="http://www.w3.org/2000/svg">
<path d="M44.2354 34.0049H34.6377V29.4521C36.7383 29.1709 38.5928 27.8613 39.6738 25.875C41.1064 25.5498 42.416 24.7148 43.374 23.5107C44.4199 22.2012 45 20.5225 45 18.7822C45 16.1455 43.6465 13.7021 41.5283 12.4365C41.3086 8.04199 37.916 4.53516 33.7852 4.53516C32.4844 4.53516 31.2012 4.88672 30.0674 5.55469C29.7158 5.76562 29.6016 6.21387 29.8037 6.57422C30.0146 6.92578 30.4629 7.04004 30.8232 6.83789C31.7285 6.30176 32.7568 6.02051 33.7852 6.02051C37.2393 6.02051 40.0518 9.10547 40.0518 12.8848C40.0518 13.166 40.21 13.4209 40.4561 13.5439C42.3105 14.4844 43.5146 16.541 43.5146 18.7822C43.5146 21.6123 41.5986 24.0645 39.0498 24.4863C38.8125 24.5215 38.6104 24.6797 38.5049 24.8994C37.7139 26.5518 36.2725 27.668 34.6377 27.958V21.4014L38.2852 18.0439C38.584 17.7627 38.6104 17.2969 38.3291 16.998C38.0479 16.6992 37.582 16.6729 37.2832 16.9541L34.6377 19.3887V14.4404C34.6377 14.0273 34.3037 13.7021 33.8994 13.7021C33.4951 13.7021 33.1611 14.0361 33.1611 14.4404V23.4141L30.5156 20.9795C30.2168 20.6982 29.7422 20.7246 29.4697 21.0234C29.1885 21.3223 29.2148 21.7969 29.5137 22.0693L33.1611 25.4268V28.002C31.4121 27.7734 29.874 26.6221 29.0479 24.873C28.9512 24.6621 28.7578 24.5127 28.5293 24.4688C26.0684 23.9502 24.2842 21.5684 24.2842 18.8086C24.2842 16.6377 25.3828 14.6689 27.1494 13.6758C27.3867 13.5439 27.5273 13.2891 27.5273 13.0166C27.5273 12.999 27.5273 12.9727 27.5273 12.9551C27.5273 12.9463 27.5273 12.9287 27.5273 12.9199C27.5273 11.373 27.9844 9.91406 28.8457 8.70117C29.083 8.36719 29.0039 7.90137 28.6699 7.66406C28.3359 7.42676 27.8701 7.50586 27.6328 7.83984C26.6484 9.22852 26.1035 10.8633 26.0508 12.6035C24.0381 13.9131 22.8076 16.251 22.8076 18.8086C22.8076 22.1309 24.917 25.0225 27.8701 25.8311C28.9863 27.9229 30.9551 29.2852 33.1699 29.4961V34.0225H32.7041C32.5986 32.0801 31.2715 30.3926 29.4258 29.8213C28.8457 28.5908 27.7207 27.6943 26.3936 27.4043C25.9629 25.4355 24.1875 23.959 22.1133 23.959C20.5137 23.959 19.0723 24.8203 18.2988 26.1826C16.7783 26.2441 15.416 27.0527 14.6338 28.3096C14.1416 26.9648 12.8936 25.9893 11.4258 25.8838V23.9326C13.4297 23.6514 15.1963 22.4033 16.2334 20.5049C17.6133 20.1885 18.8613 19.3887 19.7842 18.2285C20.7949 16.9629 21.3486 15.3545 21.3486 13.6846C21.3486 11.1533 20.0566 8.81543 18.0176 7.59375C17.7715 3.36621 14.5195 0 10.5557 0C9.03516 0 7.56738 0.492188 6.32812 1.41504C6.00293 1.66113 5.93262 2.12695 6.17871 2.45215C6.42481 2.77734 6.89062 2.84766 7.21582 2.60156C8.20898 1.86328 9.36035 1.47656 10.5645 1.47656C13.8516 1.47656 16.5322 4.41211 16.5322 8.02441C16.5322 8.30566 16.6904 8.56055 16.9365 8.68359C18.7031 9.58008 19.8457 11.54 19.8457 13.6758C19.8457 16.374 18.0176 18.7031 15.6006 19.1074C15.3633 19.1426 15.1611 19.3008 15.0557 19.5205C14.3086 21.0762 12.9551 22.1309 11.4082 22.4209V16.1895L14.8887 12.9902C15.1875 12.709 15.2139 12.2432 14.9326 11.9443C14.6514 11.6455 14.1855 11.6191 13.8867 11.9004L11.4082 14.1768V9.50977C11.4082 9.09668 11.0742 8.77148 10.6699 8.77148C10.2568 8.77148 9.93164 9.10547 9.93164 9.50977V18.0264L7.45313 15.75C7.1543 15.4688 6.67969 15.4951 6.40723 15.7939C6.12598 16.0928 6.15234 16.5674 6.45117 16.8398L9.93164 20.0391V22.4473C8.2793 22.2188 6.8291 21.1289 6.04688 19.4678C5.9502 19.2568 5.75684 19.1074 5.52832 19.0635C3.19043 18.5625 1.48535 16.2949 1.48535 13.6758C1.48535 11.6016 2.53125 9.72949 4.20996 8.78906C4.44727 8.65723 4.58789 8.40234 4.58789 8.13867C4.58789 8.12109 4.58789 8.09473 4.58789 8.07715C4.58789 8.06836 4.58789 8.05957 4.58789 8.04199C4.58789 7.12793 4.75488 6.24023 5.08887 5.40527C5.18555 5.15918 5.2998 4.91309 5.43164 4.68457C5.625 4.32422 5.49316 3.87598 5.13281 3.68262C4.77246 3.48926 4.32422 3.62109 4.13086 3.98145C3.97266 4.2627 3.84082 4.56152 3.71777 4.86035C3.34863 5.77441 3.14648 6.73242 3.11133 7.73438C1.17773 8.98242 0 11.2236 0 13.6758C0 16.8662 2.02148 19.6436 4.86035 20.4258C5.92383 22.4297 7.80469 23.7217 9.92285 23.9414V26.0596C9.11426 26.3408 8.41992 26.9033 7.97168 27.6592C6.16992 27.7647 4.71973 29.0918 4.43848 30.8408C3.11133 31.4297 2.12695 32.5986 1.75781 33.9961H0.738281C0.325195 33.9961 0 34.3301 0 34.7344C0 35.1387 0.333984 35.4727 0.738281 35.4727H2.36426H19.0986H31.9131H44.2266C44.6396 35.4727 44.9648 35.1387 44.9648 34.7344C44.9648 34.3301 44.6484 34.0049 44.2354 34.0049ZM5.35254 32.0801C5.65137 31.9834 5.85352 31.7109 5.8623 31.3945C5.89746 30.1289 6.92578 29.1357 8.19141 29.1357C8.24414 29.1357 8.29688 29.1357 8.36719 29.1445C8.68359 29.1709 8.98242 28.9863 9.10547 28.6963C9.44824 27.8701 10.248 27.3428 11.1445 27.3428C12.2871 27.3428 13.2539 28.2393 13.3418 29.373C13.3682 29.7334 13.6582 30.0234 14.0273 30.0586C14.2295 30.0762 14.4229 30.1201 14.6074 30.1904C14.6426 30.1992 14.6777 30.2168 14.7129 30.2344C14.7217 30.2344 14.7305 30.2432 14.7305 30.2432C14.7656 30.2607 14.792 30.2695 14.8271 30.2871C14.8359 30.2959 14.8447 30.2959 14.8623 30.3047C14.9063 30.3223 14.9502 30.3486 14.9854 30.375C15.0117 30.3926 15.0293 30.4014 15.0557 30.4189C15.0732 30.4277 15.0908 30.4365 15.0996 30.4541C15.126 30.4717 15.1523 30.4893 15.1699 30.5068C15.1875 30.5156 15.1963 30.5244 15.2139 30.5332C15.2402 30.5596 15.2666 30.5772 15.3018 30.6035C15.3105 30.6123 15.3193 30.6123 15.3281 30.6211C15.3984 30.6826 15.4688 30.7529 15.5303 30.832C15.5391 30.8408 15.5391 30.8496 15.5479 30.8496C15.5742 30.8848 15.6006 30.9111 15.627 30.9463C15.6357 30.9551 15.6357 30.9551 15.6445 30.9639C15.7061 31.043 15.7588 31.1221 15.8027 31.21C15.8115 31.2188 15.8115 31.2363 15.8203 31.2451C15.8379 31.2803 15.8555 31.3066 15.8643 31.3418C15.873 31.3506 15.873 31.3682 15.8818 31.377C15.8994 31.4209 15.917 31.4648 15.9346 31.5088C15.9346 31.5088 15.9346 31.5088 15.9346 31.5176C16.0225 31.7549 16.2246 31.9395 16.4795 31.9922C16.5498 32.0098 16.6113 32.0273 16.6729 32.0449C16.6904 32.0537 16.7168 32.0625 16.7344 32.0625C16.7783 32.0801 16.8223 32.0889 16.8574 32.1064C16.8838 32.1152 16.9014 32.124 16.9277 32.1328C16.9629 32.1504 16.998 32.168 17.0332 32.1855C17.0596 32.1943 17.0771 32.2119 17.1035 32.2207C17.1387 32.2383 17.1738 32.2559 17.2002 32.2822C17.2266 32.2998 17.2441 32.3086 17.2705 32.3262C17.3057 32.3438 17.332 32.3701 17.3672 32.3877C17.3936 32.4053 17.4111 32.4229 17.4287 32.4404C17.4551 32.4668 17.4902 32.4932 17.5166 32.5107C17.5342 32.5283 17.5605 32.5459 17.5781 32.5635C17.6045 32.5898 17.6396 32.6162 17.666 32.6514C17.6836 32.6689 17.7012 32.6865 17.7188 32.7041C17.7539 32.7393 17.7803 32.7744 17.8154 32.8096C17.8242 32.8271 17.8418 32.8359 17.8506 32.8535C17.8945 32.9062 17.9297 32.959 17.9648 33.0117C17.9736 33.0205 17.9824 33.0381 17.9824 33.0469C18.0088 33.0908 18.0352 33.1348 18.0615 33.1787C18.0703 33.1963 18.0791 33.2227 18.0967 33.2402C18.1143 33.2754 18.1318 33.3105 18.1494 33.3545C18.1582 33.3809 18.167 33.3984 18.1846 33.4248C18.2021 33.46 18.2109 33.4951 18.2285 33.5303C18.2373 33.5566 18.2461 33.583 18.2549 33.6094C18.2637 33.6445 18.2812 33.6797 18.29 33.7236C18.2988 33.75 18.3076 33.7764 18.3076 33.8027C18.3164 33.8379 18.3252 33.8818 18.334 33.917C18.3428 33.9434 18.3428 33.9697 18.3516 33.9961C18.3516 34.0049 18.3516 34.0225 18.3604 34.0312H3.30469C3.66504 33.1084 4.40332 32.3877 5.35254 32.0801ZM19.8545 34.0049C19.8545 33.9961 19.8545 33.9873 19.8545 33.9873C19.8457 33.8994 19.8369 33.8115 19.8193 33.7236C19.8193 33.7148 19.8193 33.7148 19.8193 33.7061C19.8018 33.6182 19.7842 33.5303 19.7666 33.4424V33.4336C19.749 33.3457 19.7227 33.2666 19.6963 33.1787C19.6963 33.1699 19.6875 33.1611 19.6875 33.1523C19.6611 33.0732 19.6348 32.9941 19.5996 32.915C19.5908 32.9062 19.5908 32.8887 19.582 32.8799C19.5469 32.8008 19.5205 32.7305 19.4766 32.6514C19.4678 32.6426 19.4678 32.625 19.459 32.6162C19.4238 32.5459 19.3799 32.4668 19.3447 32.3965C19.3359 32.3877 19.3359 32.3789 19.3271 32.3613C19.2832 32.291 19.2393 32.2207 19.1953 32.1504C19.1865 32.1416 19.1865 32.1328 19.1777 32.124C19.125 32.0537 19.0811 31.9834 19.0195 31.9131L19.0107 31.9043C18.958 31.834 18.8965 31.7637 18.835 31.7022C18.7734 31.6406 18.7119 31.5703 18.6504 31.5088C18.6416 31.5 18.6416 31.5 18.6328 31.4912C18.5713 31.4297 18.5098 31.377 18.4395 31.3242C18.4307 31.3154 18.4219 31.3066 18.4131 31.3066C18.3516 31.2539 18.2812 31.2012 18.2109 31.1572C18.2021 31.1484 18.1934 31.1397 18.1758 31.1309C18.1055 31.0869 18.0352 31.0342 17.9648 30.999C17.9561 30.9902 17.9385 30.9814 17.9297 30.9814C17.8594 30.9375 17.7803 30.9023 17.71 30.8584C17.7012 30.8496 17.6924 30.8496 17.6748 30.8408C17.5957 30.8057 17.5166 30.7705 17.4375 30.7354C17.4287 30.7354 17.4199 30.7266 17.4199 30.7266C17.332 30.6914 17.2529 30.6562 17.165 30.6299C17.165 30.6211 17.1562 30.6123 17.1562 30.6035C17.1299 30.542 17.0947 30.4805 17.0596 30.4277C17.042 30.4014 17.0244 30.3662 17.0068 30.3398C16.9893 30.3047 16.9629 30.2695 16.9453 30.2344C16.9277 30.1992 16.9014 30.1729 16.875 30.1377C16.8574 30.1113 16.8311 30.085 16.8135 30.0586C16.7871 30.0234 16.7607 29.9883 16.7344 29.9531C16.7168 29.9355 16.6992 29.918 16.6816 29.8916C16.6201 29.8125 16.5498 29.7422 16.4883 29.6719C16.4795 29.6631 16.4619 29.6455 16.4531 29.6367C16.418 29.6016 16.3828 29.5664 16.3477 29.54C16.3301 29.5225 16.3037 29.5049 16.2861 29.4873C16.251 29.4609 16.2158 29.4258 16.1807 29.3994C16.1543 29.3818 16.1279 29.3555 16.1016 29.3379C16.0664 29.3115 16.04 29.2852 16.0049 29.2676C15.9609 29.2324 15.9082 29.1973 15.8643 29.1709C15.8555 29.1621 15.8379 29.1533 15.8291 29.1445C16.3652 28.2305 17.3584 27.6504 18.4482 27.6504C18.5186 27.6504 18.5889 27.6504 18.6768 27.6592C18.9932 27.6855 19.292 27.501 19.415 27.2109C19.8721 26.1299 20.918 25.4355 22.0869 25.4355C23.5898 25.4355 24.8555 26.6045 24.9785 28.1074C25.0049 28.4678 25.2949 28.7578 25.6641 28.793C26.7979 28.8809 27.7734 29.6279 28.1602 30.6914C28.248 30.9287 28.4502 31.1133 28.7051 31.166C30.0762 31.4648 31.0869 32.6338 31.2012 34.0137L19.8545 34.0049Z" fill="#E0B47B"/>
</svg>
