<svg width="17" height="45" viewBox="0 0 17 45" fill="none" xmlns="http://www.w3.org/2000/svg">
<path d="M8.23715 0C5.35591 0 3.02786 2.35254 3.02018 5.24678V30.3818C0.815065 32.2003 -0.291333 35.0559 0.123567 37.9037C0.761282 42.4076 4.90259 45.5494 9.37429 44.9149C13.4234 44.3422 16.4276 40.8444 16.4199 36.7352C16.4276 34.2743 15.3365 31.945 13.4388 30.3818V5.24678C13.4388 2.35254 11.1107 0 8.23715 0ZM14.9293 36.7352C14.937 40.4574 11.9405 43.4832 8.23715 43.491C4.54148 43.491 1.5373 40.4729 1.5373 36.7506C1.5373 34.6225 2.52845 32.6182 4.21878 31.3414C4.40318 31.2021 4.51843 30.9776 4.51843 30.7377V28.4781H6.00899V26.9768H4.51074V24.7248H6.00131V23.2236H4.51074V20.9716H6.00131V19.4703H4.51074V17.2184H6.00131V15.7171H4.51074V13.4652H6.00131V11.9948H4.51074V9.74291H6.00131V8.24162H4.51074V5.24678C4.51074 3.17283 6.17802 1.50129 8.22947 1.50129C10.2809 1.50129 11.9482 3.18057 11.9482 5.24678V30.7455C11.9482 30.9854 12.0558 31.2021 12.2478 31.3491C13.9459 32.6105 14.937 34.607 14.9293 36.7352Z" fill="#E0B47B"/>
<path d="M8.9753 33.0593V6.74805H7.49242V33.0593C5.47939 33.4772 4.18091 35.4505 4.58812 37.4781C5.00302 39.5056 6.96227 40.8134 8.9753 40.4032C10.9883 39.9854 12.2868 38.012 11.8796 35.9845C11.5799 34.5064 10.4428 33.3611 8.9753 33.0593ZM8.2377 38.9793C7.00068 38.9793 6.00185 37.9733 6.00185 36.7274C6.00185 35.4815 7.00068 34.4755 8.2377 34.4755C9.47471 34.4755 10.4735 35.4815 10.4735 36.7274C10.4659 37.9733 9.46703 38.9793 8.2377 38.9793Z" fill="#E0B47B"/>
</svg>
