<svg width="22" height="21" viewBox="0 0 22 21" fill="none" xmlns="http://www.w3.org/2000/svg">
<path d="M21.6311 9.33046L11.7612 0.297781C11.3272 -0.0992602 10.674 -0.0992602 10.2401 0.297781L0.370143 9.33046C0.0220958 9.64982 -0.0896229 10.1375 0.0779552 10.5777C0.245533 11.0179 0.66233 11.3027 1.13069 11.3027H2.70764V20.3527C2.70764 20.7109 2.99553 21.0043 3.35647 21.0043H8.76623C9.12287 21.0043 9.41506 20.7152 9.41506 20.3527V14.8588H12.5947V20.3527C12.5947 20.7109 12.8826 21.0043 13.2436 21.0043H18.649C19.0057 21.0043 19.2979 20.7152 19.2979 20.3527V11.3027H20.8748C21.3432 11.3027 21.7557 11.0179 21.9276 10.5777C22.0908 10.1375 21.9791 9.64982 21.6311 9.33046Z" fill="#E0B47B"/>
<path d="M19.7699 5.85635V1.94636C19.7699 1.58816 19.482 1.29469 19.1211 1.29469H14.7812L19.7699 5.85635Z" fill="#E0B47B"/>
</svg>
