<svg width="24" height="19" viewBox="0 0 24 19" fill="none" xmlns="http://www.w3.org/2000/svg">
<path d="M5 17.1H3V19H5V17.1Z" fill="#E0B47B"/>
<path d="M21 17.1H19V19H21V17.1Z" fill="#E0B47B"/>
<path d="M7 3.8C7 3.2775 7.45 2.85 8 2.85H16C16.55 2.85 17 3.2775 17 3.8V7.6H22V1.9C22 0.849062 21.1063 0 20 0H4C2.89375 0 2 0.849062 2 1.9V7.6H7V3.8Z" fill="#E0B47B"/>
<path d="M22 8.55005H2C0.89375 8.55005 0 9.39911 0 10.45V16.9041C0 17.0941 0.11875 17.2722 0.30625 17.3435C0.49375 17.4147 0.70625 17.3791 0.85 17.2425L2 16.15H22L23.1437 17.2366C23.2875 17.3732 23.5 17.4147 23.6875 17.3375C23.875 17.2663 23.9937 17.0882 23.9937 16.8982V10.45C23.9937 9.94536 23.7812 9.46442 23.4062 9.10817C23.0375 8.75192 22.5312 8.55005 22 8.55005Z" fill="#E0B47B"/>
</svg>
