<svg width="18" height="22" viewBox="0 0 18 22" fill="none" xmlns="http://www.w3.org/2000/svg">
<g clip-path="url(#clip0)">
    <g opacity="0.2">
        <path d="M12.15 0C9.07313 0.00558036 6.51938 2.37165 6.31688 5.41853C3.88125 5.76451 1.87313 7.48326 1.16438 9.82143H13.2356C12.5325 7.49442 10.5356 5.78125 8.11688 5.42411C8.32501 3.29241 10.1813 1.69643 12.3413 1.79688C14.5013 1.89732 16.1944 3.66071 16.2 5.80357V21.4286H18V5.80357C17.9944 2.60045 15.3788 0.00558036 12.15 0Z" fill="#2E2E31"/>
        <path d="M14.4 10.7142H0V12.4999H14.4V10.7142Z" fill="#2E2E31"/>
        <path d="M8.1 19.6429C8.1 20.1339 7.695 20.5357 7.2 20.5357C6.705 20.5357 6.3 20.1339 6.3 19.6429C6.3 19.1518 6.705 18.75 7.2 18.75C7.695 18.75 8.1 19.1518 8.1 19.6429Z" fill="#2E2E31"/>
        <path d="M8.1 16.9643C8.1 17.4553 7.695 17.8571 7.2 17.8571C6.705 17.8571 6.3 17.4553 6.3 16.9643C6.3 16.4732 6.705 16.0714 7.2 16.0714C7.695 16.0714 8.1 16.4732 8.1 16.9643Z" fill="#2E2E31"/>
        <path d="M11.7 19.6429C11.7 20.1339 11.295 20.5357 10.8 20.5357C10.305 20.5357 9.9 20.1339 9.9 19.6429C9.9 19.1518 10.305 18.75 10.8 18.75C11.295 18.75 11.7 19.1518 11.7 19.6429Z" fill="#2E2E31"/>
        <path d="M11.7 16.9643C11.7 17.4553 11.295 17.8571 10.8 17.8571C10.305 17.8571 9.9 17.4553 9.9 16.9643C9.9 16.4732 10.305 16.0714 10.8 16.0714C11.295 16.0714 11.7 16.4732 11.7 16.9643Z" fill="#2E2E31"/>
        <path d="M4.5 19.6429C4.5 20.1339 4.095 20.5357 3.6 20.5357C3.105 20.5357 2.7 20.1339 2.7 19.6429C2.7 19.1518 3.105 18.75 3.6 18.75C4.095 18.75 4.5 19.1518 4.5 19.6429Z" fill="#2E2E31"/>
        <path d="M4.5 16.9643C4.5 17.4553 4.095 17.8571 3.6 17.8571C3.105 17.8571 2.7 17.4553 2.7 16.9643C2.7 16.4732 3.105 16.0714 3.6 16.0714C4.095 16.0714 4.5 16.4732 4.5 16.9643Z" fill="#2E2E31"/>
        <path d="M8.1 14.2857C8.1 14.7767 7.695 15.1785 7.2 15.1785C6.705 15.1785 6.3 14.7767 6.3 14.2857C6.3 13.7946 6.705 13.3928 7.2 13.3928C7.695 13.3928 8.1 13.7946 8.1 14.2857Z" fill="#2E2E31"/>
        <path d="M11.7 14.2857C11.7 14.7767 11.295 15.1785 10.8 15.1785C10.305 15.1785 9.9 14.7767 9.9 14.2857C9.9 13.7946 10.305 13.3928 10.8 13.3928C11.295 13.3928 11.7 13.7946 11.7 14.2857Z" fill="#2E2E31"/>
        <path d="M4.5 14.2857C4.5 14.7767 4.095 15.1785 3.6 15.1785C3.105 15.1785 2.7 14.7767 2.7 14.2857C2.7 13.7946 3.105 13.3928 3.6 13.3928C4.095 13.3928 4.5 13.7946 4.5 14.2857Z" fill="#2E2E31"/>
    </g>
</g>
<defs>
    <clipPath id="clip0">
        <rect width="18" height="21.4286" fill="white"/>
    </clipPath>
</defs>
</svg>
