<svg width="14" height="19" viewBox="0 0 14 19" fill="none" xmlns="http://www.w3.org/2000/svg">
<g opacity="0.2">
<g clip-path="url(#clip0)">
<path d="M6.99998 9.28959C9.04411 9.28959 10.707 7.20638 10.707 4.64138C10.707 2.07638 10.1615 -0.00683594 6.99998 -0.00683594C3.83848 -5.0223e-05 3.29294 2.08316 3.29294 4.64816C3.29294 7.21316 4.95585 9.28959 6.99998 9.28959Z" fill="#2E2E31"/>
<path d="M13.9869 16.1974C13.9211 11.7256 13.3559 10.4567 9.02443 9.64917C9.02443 9.64917 8.41316 10.4499 6.99344 10.4499C5.57372 10.4499 4.96245 9.64917 4.96245 9.64917C0.68358 10.4499 0.0854575 11.6985 0.00658426 16.0549C1.14911e-05 16.4078 1.14911e-05 16.4281 -0.00656128 16.3874C-0.00656128 16.462 -0.00656128 16.6113 -0.00656128 16.8556C-0.00656128 16.8556 1.02536 18.9999 6.99344 18.9999C12.9615 18.9999 13.9934 16.8556 13.9934 16.8556C13.9934 16.6928 13.9934 16.5842 13.9934 16.5095C13.9934 16.5367 13.9934 16.4824 13.9869 16.1974Z" fill="#2E2E31"/>
</g>
</g>
<defs>
<clipPath id="clip0">
<rect width="14" height="19" fill="white"/>
</clipPath>
</defs>
</svg>
