<svg width="40" height="40" viewBox="0 0 40 40" fill="none" xmlns="http://www.w3.org/2000/svg">
<path d="M38.6566 33.1372L23.3897 19.8386L25.7329 17.1518C27.9302 18.4639 30.7628 17.9953 32.4082 16.0271L37.8027 9.58084C39.5418 7.55012 39.5105 4.5509 37.7193 2.56183C35.824 0.531112 32.679 0.333246 30.5545 2.11403L23.9937 7.60219C22.0255 9.24759 21.5569 12.0802 22.869 14.2775L19.9427 16.829L18.0474 15.1731C19.3595 12.9758 18.8909 10.1432 16.9227 8.49779L13.9755 6.04009L8.40406 0.468628C8.11247 0.166623 7.70633 0 7.28977 0C6.87321 0 6.46707 0.166623 6.17548 0.458214C5.88388 0.749805 5.71726 1.15595 5.71726 1.57251C5.71726 1.98907 5.88388 2.39521 6.18589 2.6868L11.0284 7.52929C11.2054 7.69591 11.2367 7.96668 11.1013 8.16454C10.9347 8.37282 10.6222 8.39365 10.4348 8.19578L5.54022 3.32205C5.24863 3.03046 4.84249 2.86384 4.42593 2.86384C4.00937 2.86384 3.61364 3.03046 3.31164 3.32205C3.02005 3.61364 2.85342 4.01979 2.85342 4.43634C2.85342 4.8529 3.02005 5.24863 3.31164 5.55064L8.15413 10.3931C8.33116 10.5598 8.36241 10.8305 8.22702 11.0284C8.0604 11.2367 7.74798 11.2575 7.56053 11.0596L2.6868 6.17548C2.39521 5.87347 1.98907 5.70685 1.57251 5.70685C1.15595 5.70685 0.749805 5.87347 0.458214 6.16506C0.166623 6.46707 0 6.87321 0 7.28977C0 7.70633 0.166623 8.11247 0.468628 8.40406L6.04009 13.9755L8.5082 16.9227C10.1536 18.8909 12.9862 19.3595 15.1835 18.0474L16.6415 19.7136L2.25983 32.2416C1.03098 33.3142 0.593595 35.0325 1.16636 36.5634C1.73913 38.0942 3.19708 39.1044 4.83208 39.1044C4.87373 39.1044 4.9258 39.1044 4.96746 39.1044C6.05051 39.0627 7.07107 38.5837 7.77922 37.761L20.0677 23.6501L33.1372 38.6566C33.8454 39.4689 34.8659 39.9583 35.949 40C35.9906 40 36.0427 40 36.0844 40C37.7193 40 39.1773 38.9898 39.7501 37.459C40.3228 35.9281 39.8854 34.2098 38.6566 33.1372ZM17.4642 18.9951L15.6938 16.9643C15.5064 16.7456 15.1835 16.7144 14.9544 16.881C13.2049 18.1724 10.7472 17.8808 9.34132 16.2145L6.8628 13.257C6.85238 13.2466 6.84197 13.2361 6.83155 13.2257L1.23926 7.63343C1.05181 7.44598 1.05181 7.14397 1.23926 6.95652C1.42671 6.77948 1.72872 6.77948 1.91617 6.95652L6.80031 11.8407C7.11273 12.1531 7.52929 12.3093 7.96668 12.2885C8.40406 12.2676 8.81021 12.0594 9.08097 11.7261C9.57042 11.0909 9.50794 10.1848 8.93517 9.62249L4.09268 4.76959C3.90523 4.58214 3.90523 4.28014 4.09268 4.09268C4.28014 3.91565 4.58214 3.91565 4.76959 4.09268L9.65374 8.97683C9.96615 9.28925 10.3827 9.44546 10.8201 9.42463C11.2575 9.4038 11.6636 9.19552 11.9344 8.86228C12.4238 8.22702 12.3614 7.32101 11.7886 6.75866L6.95652 1.91617C6.76907 1.72872 6.76907 1.42671 6.95652 1.23926C7.14397 1.06222 7.44598 1.06222 7.63343 1.23926L13.2257 6.83155C13.2361 6.84197 13.2466 6.85238 13.257 6.8628L16.2145 9.34132C17.8808 10.7368 18.1724 13.1945 16.881 14.9544C16.7144 15.1835 16.7456 15.5064 16.9643 15.6938L19.1096 17.5683L18.1307 18.4223L17.4642 18.9951ZM6.95652 37.0424C6.44624 37.636 5.70685 37.9797 4.9258 38.0109C4.14475 38.0422 3.38454 37.7402 2.8326 37.1882C2.28066 36.6363 1.97865 35.8761 2.00989 35.095C2.04114 34.314 2.3848 33.585 2.97839 33.0643L18.818 19.2658L20.2968 17.9745L23.9417 14.7982C24.1604 14.6108 24.1916 14.2879 24.025 14.0588C22.7337 12.3093 23.0253 9.8516 24.6915 8.44572L31.2523 2.94715C32.9289 1.54127 35.4283 1.69747 36.9175 3.30122C38.3338 4.88414 38.3546 7.26894 36.9695 8.87269L31.5647 15.3189C30.1692 16.9852 27.7115 17.2768 25.9516 15.9854C25.7225 15.8188 25.3996 15.85 25.2122 16.0687L22.1921 19.5366L19.6407 22.4629L6.95652 37.0424ZM38.0734 38.0734C37.5215 38.6254 36.7613 38.9274 35.9802 38.8961C35.1992 38.8649 34.4702 38.5212 33.9495 37.9276L20.7863 22.817L22.5462 20.7967L22.6608 20.6613L37.9276 33.9599C38.5212 34.4702 38.8649 35.2096 38.8961 35.9906C38.9274 36.7717 38.6254 37.5215 38.0734 38.0734Z" fill="#E0B47B"/>
</svg>
