<svg width="40" height="31" viewBox="0 0 40 31" fill="none" xmlns="http://www.w3.org/2000/svg">
<path d="M38 0H2C0.898438 0 0 0.905617 0 2.01598V28.8931C0 30.0035 0.898438 30.9091 2 30.9091H38C39.1016 30.9091 40 30.0035 40 28.8931V2.01598C40 0.905617 39.1016 0 38 0ZM38.6641 28.8931C38.6641 29.2632 38.3672 29.5625 38 29.5625H2C1.63281 29.5625 1.33594 29.2632 1.33594 28.8931V2.01598C1.33594 1.64586 1.63281 1.34661 2 1.34661H38C38.3672 1.34661 38.6641 1.64586 38.6641 2.01598V28.8931Z" fill="#E0B47B"/>
<path d="M37.1802 2.92949C37.063 2.79561 36.9067 2.70899 36.727 2.69324C36.5474 2.67749 36.3755 2.73261 36.2427 2.85074L20.8599 15.868C20.3677 16.2854 19.6411 16.2854 19.1411 15.868L3.76611 2.84286C3.58643 2.68536 3.33643 2.64599 3.10986 2.72474C2.8833 2.80349 2.71924 3.00036 2.68018 3.23661C2.64111 3.47286 2.72705 3.71698 2.90674 3.8666L18.2817 16.8996C19.2739 17.7422 20.7192 17.7422 21.7114 16.8996L37.0942 3.87448C37.227 3.75635 37.313 3.59886 37.3286 3.41773C37.3442 3.24448 37.2895 3.06336 37.1802 2.92949Z" fill="#E0B47B"/>
<path d="M12.1797 17.0098L2.8438 27.0897C2.67192 27.263 2.60942 27.515 2.67974 27.7512C2.75005 27.9875 2.93755 28.1607 3.17192 28.2158C3.4063 28.271 3.6563 28.1922 3.81255 28.0032L13.1485 17.9233C13.3204 17.7501 13.3829 17.4981 13.3125 17.2618C13.2422 17.0256 13.0547 16.8523 12.8204 16.7972C12.586 16.7421 12.3438 16.8287 12.1797 17.0098Z" fill="#E0B47B"/>
<path d="M27.8204 17.0099C27.6563 16.8288 27.4141 16.75 27.1797 16.7973C26.9454 16.8524 26.7579 17.0256 26.6875 17.2619C26.6172 17.4981 26.6797 17.7501 26.8516 17.9234L36.1876 28.0033C36.4376 28.2631 36.8516 28.271 37.1173 28.0269C37.3829 27.7749 37.3985 27.3575 37.1563 27.0898L27.8204 17.0099Z" fill="#E0B47B"/>
</svg>
