<svg width="33" height="48" viewBox="0 0 33 48" fill="none" xmlns="http://www.w3.org/2000/svg">
<path d="M16.5004 10.3697C13.2004 10.3697 10.5391 13.0423 10.5391 16.3564C10.5391 19.6704 13.2004 22.343 16.5004 22.343C19.8004 22.343 22.4616 19.6704 22.4616 16.3564C22.4616 13.0423 19.8004 10.3697 16.5004 10.3697ZM16.5004 20.6325C14.1584 20.6325 12.2423 18.7083 12.2423 16.3564C12.2423 14.0045 14.1584 12.0802 16.5004 12.0802C18.8423 12.0802 20.7584 14.0045 20.7584 16.3564C20.7584 18.7083 18.8423 20.6325 16.5004 20.6325Z" fill="#E0B47B"/>
<path d="M27.8906 4.91759C24.8035 1.81737 20.6519 0.106903 16.3939 0.106903C12.0293 0.106903 7.87773 1.81737 4.79063 4.91759C-0.957752 10.6904 -1.59646 21.3808 3.30031 28.0089L16.3939 47.0379L29.4874 28.1158C34.2777 21.4877 33.639 10.6904 27.8906 4.91759ZM27.9971 27.0468L16.2874 44.0445L4.57773 27.0468C0.213216 21.0601 0.851925 11.3318 5.9616 6.09354C8.72934 3.31403 12.3487 1.81737 16.2874 1.81737C20.2261 1.81737 23.8455 3.31403 26.6132 6.09354C31.8293 11.3318 32.4681 21.0601 27.9971 27.0468Z" fill="#E0B47B"/>
</svg>
