<svg width="45" height="45" viewBox="0 0 45 45" fill="none" xmlns="http://www.w3.org/2000/svg">
<g clip-path="url(#clip0)">
<path d="M30.7476 39.0042H2.24285C0.973987 39.0042 0 38.0213 0 36.7524V28.5048C0 27.227 0.973987 26.253 2.25179 26.253H2.62708C2.9309 26.253 3.22577 26.0296 3.37768 25.7258L6.00477 16.5757V16.5042C6.60345 15.1549 7.95274 14.2524 9.45393 14.2524H23.5544C25.0556 14.2524 26.4049 15.1549 27.0036 16.5042V16.5757L29.6307 25.7258C29.7021 26.0296 30.006 26.253 30.3813 26.253H30.7566C32.0344 26.253 33.0083 27.227 33.0083 28.5048V36.7524C32.9994 38.0213 32.0254 39.0042 30.7476 39.0042ZM2.25179 27.7542C1.805 27.7542 1.50119 28.058 1.50119 28.5048V36.7524C1.50119 37.1992 1.805 37.503 2.25179 37.503H30.7566C31.2033 37.503 31.5071 37.1992 31.5071 36.7524V28.5048C31.5071 28.058 31.2033 27.7542 30.7566 27.7542H30.3813C29.4073 27.7542 28.5048 27.0751 28.2099 26.1011L25.5828 17.0225C25.2075 16.2004 24.3854 15.7447 23.5544 15.7447H9.45393C8.55143 15.7447 7.80083 16.2719 7.42554 17.0225L4.79845 26.1011C4.49464 27.0751 3.60107 27.7542 2.62708 27.7542H2.25179Z" fill="#E0B47B"/>
<path d="M5.99648 45.0001H4.50423C3.22643 45.0001 2.25244 44.0261 2.25244 42.7483V38.2447C2.25244 37.798 2.55625 37.4941 3.00304 37.4941H7.50661C7.95339 37.4941 8.25721 37.798 8.25721 38.2447V42.7483C8.24827 44.0261 7.27428 45.0001 5.99648 45.0001ZM3.75363 39.0043V42.7572C3.75363 43.204 4.05745 43.5078 4.50423 43.5078H6.00542C6.4522 43.5078 6.75601 43.204 6.75601 42.7572V39.0043H3.75363Z" fill="#E0B47B"/>
<path d="M28.5047 45.0001H27.0035C25.7257 45.0001 24.7517 44.0261 24.7517 42.7483V38.2447C24.7517 37.798 25.0555 37.4941 25.5023 37.4941H30.0059C30.4527 37.4941 30.7565 37.798 30.7565 38.2447V42.7483C30.7475 44.0261 29.7736 45.0001 28.5047 45.0001ZM26.2529 39.0043V42.7572C26.2529 43.204 26.5567 43.5078 27.0035 43.5078H28.5047C28.9515 43.5078 29.2553 43.204 29.2553 42.7572V39.0043H26.2529Z" fill="#E0B47B"/>
<path d="M6.74604 35.2511C5.09294 35.2511 3.74365 33.9018 3.74365 32.2487C3.74365 30.5956 5.09294 29.2463 6.74604 29.2463C8.39913 29.2463 9.74842 30.5956 9.74842 32.2487C9.74842 33.9018 8.39913 35.2511 6.74604 35.2511ZM6.74604 30.7475C5.92395 30.7475 5.24484 31.4266 5.24484 32.2487C5.24484 33.0708 5.92395 33.7499 6.74604 33.7499C7.56812 33.7499 8.24723 33.0708 8.24723 32.2487C8.24723 31.4266 7.57705 30.7475 6.74604 30.7475Z" fill="#E0B47B"/>
<path d="M26.2536 35.2511C24.6005 35.2511 23.2512 33.9018 23.2512 32.2487C23.2512 30.5956 24.6005 29.2463 26.2536 29.2463C27.9067 29.2463 29.256 30.5956 29.256 32.2487C29.2471 33.9018 27.8978 35.2511 26.2536 35.2511ZM26.2536 30.7475C25.4315 30.7475 24.7524 31.4266 24.7524 32.2487C24.7524 33.0708 25.4315 33.7499 26.2536 33.7499C27.0757 33.7499 27.7548 33.0708 27.7548 32.2487C27.7548 31.4266 27.0757 30.7475 26.2536 30.7475Z" fill="#E0B47B"/>
<path d="M17.9961 34.5005H14.9938C14.547 34.5005 14.2432 34.1966 14.2432 33.7499C14.2432 33.3031 14.547 32.9993 14.9938 32.9993H17.9961C18.4429 32.9993 18.7467 33.3031 18.7467 33.7499C18.7467 34.1966 18.4519 34.5005 17.9961 34.5005Z" fill="#E0B47B"/>
<path d="M19.4984 31.4983H13.5025C13.0558 31.4983 12.752 31.1945 12.752 30.7477C12.752 30.3009 13.0558 29.9971 13.5025 29.9971H19.4984C19.9452 29.9971 20.249 30.3009 20.249 30.7477C20.249 31.2034 19.9541 31.4983 19.4984 31.4983Z" fill="#E0B47B"/>
<path d="M23.7787 26.2531H9.30295C8.85616 26.2531 8.40045 26.0297 8.10557 25.6544C7.80176 25.2791 7.73027 24.7519 7.88218 24.3051L9.67825 18.3093C9.90164 17.6302 10.4288 17.2549 11.099 17.2549H21.9737C22.6528 17.2549 23.2515 17.7017 23.3945 18.3093L25.1905 24.3051C25.3424 24.7519 25.262 25.2791 24.9672 25.6544C24.6723 26.0297 24.2255 26.2531 23.7787 26.2531ZM11.099 18.7471L9.30295 24.7519H23.7787L21.9826 18.7561H11.099V18.7471Z" fill="#E0B47B"/>
<path d="M41.9973 45.0002H32.9991C32.5523 45.0002 32.2485 44.6963 32.2485 44.2496V41.2472C32.2485 40.8004 32.5523 40.4966 32.9991 40.4966H41.9973C42.4441 40.4966 42.7479 40.8004 42.7479 41.2472V44.2496C42.7479 44.6963 42.4531 45.0002 41.9973 45.0002ZM33.7497 43.499H41.2467V41.9978H33.7497V43.499Z" fill="#E0B47B"/>
<path d="M39.7551 41.9977H35.2516C34.8048 41.9977 34.501 41.6939 34.501 41.2471V38.2447C34.501 37.798 34.8048 37.4941 35.2516 37.4941H39.7551C40.2019 37.4941 40.5057 37.798 40.5057 38.2447V41.2471C40.4968 41.7028 40.2019 41.9977 39.7551 41.9977ZM36.0022 40.4965H39.0045V38.9953H36.0022V40.4965Z" fill="#E0B47B"/>
<path d="M37.5023 39.0042C37.0555 39.0042 36.7517 38.7004 36.7517 38.2536V13.5018C36.7517 13.055 37.0555 12.7512 37.5023 12.7512C37.9491 12.7512 38.2529 13.055 38.2529 13.5018V38.2536C38.2529 38.7004 37.9491 39.0042 37.5023 39.0042Z" fill="#E0B47B"/>
<path d="M44.2498 14.2524H31.4986C31.0519 14.2524 30.748 13.9486 30.748 13.5018V0.750596C30.748 0.303813 31.0519 0 31.4986 0H44.2498C44.6966 0 45.0004 0.303813 45.0004 0.750596V13.5018C45.0004 13.9486 44.6966 14.2524 44.2498 14.2524ZM32.2492 12.7512H43.4992V1.50119H32.2492V12.7512Z" fill="#E0B47B"/>
<path d="M36.7521 11.2501C36.3053 11.2501 36.0015 10.9462 36.0015 10.4995V3.75304C36.0015 3.30625 36.3053 3.00244 36.7521 3.00244C37.1988 3.00244 37.5027 3.30625 37.5027 3.75304V10.4995C37.5027 10.9462 37.1988 11.2501 36.7521 11.2501Z" fill="#E0B47B"/>
<path d="M38.2533 8.99827H36.7521C36.3053 8.99827 36.0015 8.69446 36.0015 8.24768V3.75304C36.0015 3.30625 36.3053 3.00244 36.7521 3.00244H38.2533C39.9063 3.00244 41.2556 4.35173 41.2556 6.00482C41.2556 7.65792 39.8974 8.99827 38.2533 8.99827ZM37.5027 7.49708H38.2533C39.0753 7.49708 39.7544 6.81797 39.7544 5.99589C39.7544 5.17381 39.0753 4.4947 38.2533 4.4947H37.5027V7.49708Z" fill="#E0B47B"/>
</g>
<defs>
<clipPath id="clip0">
<rect width="45" height="45" fill="white"/>
</clipPath>
</defs>
</svg>
