<svg width="45" height="41" viewBox="0 0 45 41" fill="none" xmlns="http://www.w3.org/2000/svg">
<g clip-path="url(#clip0)">
<path d="M26.0156 24.2722C26.499 24.2722 26.8945 23.8821 26.8945 23.4053C26.8945 22.9285 26.499 22.5385 26.0156 22.5385C25.5322 22.5385 25.1367 22.9285 25.1367 23.4053C25.1367 23.8821 25.5322 24.2722 26.0156 24.2722Z" fill="#E0B47B"/>
<path d="M15.5653 20.6312C13.5878 25.1042 10.8895 27.4707 10.8632 27.4968L10.8544 27.5054C9.26355 28.9097 8.34949 30.9295 8.34949 33.036C8.34949 35.6106 9.59753 37.8557 11.7509 39.2687C13.7635 40.595 16.2509 40.9851 18.5887 40.361C19.7577 40.0489 21.1112 39.8755 22.4999 39.8755C23.9149 39.8755 25.286 40.0489 26.4725 40.3783C28.7401 41.0024 31.2274 40.6644 33.2753 39.3207C35.455 37.8991 36.7206 35.6366 36.7206 33.036C36.7206 30.7475 35.6747 28.6237 33.8553 27.2107C33.0292 26.3958 31.0341 24.2027 29.4608 20.6312C28.2919 17.8573 25.5673 16.0629 22.5175 16.0629C19.4677 16.0629 16.743 17.8573 15.5653 20.6312ZM27.8348 21.2987C27.8348 21.3074 27.8348 21.3074 27.8436 21.316C29.5663 25.2082 31.7811 27.6181 32.6512 28.4676C32.6776 28.4936 32.704 28.511 32.7303 28.537C34.1454 29.6206 34.9628 31.2589 34.9628 33.0273C34.9628 35.0471 33.9872 36.7722 32.2997 37.8644C30.7177 38.896 28.7577 39.1994 26.9384 38.6966C25.6024 38.3238 24.0643 38.1331 22.4911 38.1331C20.9442 38.1331 19.4325 38.3238 18.1141 38.6792C16.2684 39.1734 14.3085 38.8613 12.7177 37.8211C11.0653 36.7288 10.0985 35.0298 10.0985 33.0273C10.0985 31.415 10.8016 29.8719 12.0145 28.7884C12.1991 28.6237 15.0555 26.1098 17.1737 21.3074C17.1737 21.2987 17.1737 21.2987 17.1825 21.29C18.079 19.1576 20.1708 17.7879 22.5087 17.7879C24.8553 17.7966 26.9384 19.1749 27.8348 21.2987Z" fill="#E0B47B"/>
<path d="M26.9388 26.9333C28.2748 28.9618 29.5404 30.3054 30.182 30.9295C30.5248 31.2676 31.0785 31.2676 31.4212 30.9209C31.764 30.5828 31.764 30.028 31.4125 29.6986C30.8236 29.1265 29.6546 27.8782 28.4066 25.9884C28.1429 25.5897 27.598 25.477 27.1937 25.737C26.7894 25.9971 26.6751 26.5346 26.9388 26.9333Z" fill="#E0B47B"/>
<path d="M14.6515 0.0260654C13.3331 0.1821 12.1642 1.03162 11.3556 2.42727C10.5118 3.88359 10.1602 5.81669 10.3888 7.73245C11.1183 13.8178 16.8663 16.6351 19.6524 11.8414C20.4962 10.385 20.8477 8.45194 20.6192 6.53618C20.171 2.80869 17.5606 -0.320679 14.6515 0.0260654ZM18.1231 10.9745C16.1017 14.468 12.6124 11.5206 12.1378 7.5244C11.9532 5.97272 12.2257 4.42105 12.8849 3.28546C13.3683 2.45327 14.1153 1.73378 15.0821 1.73378C16.8136 1.73378 18.545 4.02229 18.8702 6.73556C19.0636 8.29591 18.7911 9.83892 18.1231 10.9745Z" fill="#E0B47B"/>
<path d="M6.89022 12.8642C5.3785 12.136 3.82284 12.0927 2.52206 12.7602C1.22128 13.419 0.359949 14.6933 0.0874877 16.3316C-0.167395 17.8746 0.140222 19.5824 0.957605 21.1427C1.77499 22.7031 3.00546 23.934 4.42928 24.6275C5.84432 25.3123 7.40878 25.4423 8.78866 24.7315C10.0894 24.0727 10.9508 22.7984 11.2232 21.16C11.4781 19.617 11.1705 17.9093 10.3531 16.349C9.54452 14.7886 8.31405 13.5577 6.89022 12.8642ZM9.50057 20.8826C9.32479 21.9662 8.78866 22.7897 7.98885 23.1885C7.19784 23.5959 6.20468 23.5526 5.20272 23.0671C4.11288 22.5383 3.15487 21.5761 2.51327 20.3452C1.87167 19.1143 1.62557 17.788 1.81893 16.609C1.99471 15.5255 2.53085 14.7019 3.33065 14.3032C4.20956 13.8524 5.22909 13.9998 6.11678 14.4245C7.20663 14.9533 8.15585 15.9155 8.80624 17.1465C9.44784 18.3774 9.69393 19.7037 9.50057 20.8826Z" fill="#E0B47B"/>
<path d="M29.9345 0.017334C27.2714 0.017334 24.8368 2.88664 24.3973 6.55346C23.9315 10.463 25.9266 14.2772 29.0907 14.2772C31.7538 14.2772 34.1884 11.4079 34.6278 7.74106C35.0936 3.84019 33.0985 0.017334 29.9345 0.017334ZM32.8788 7.54168C32.5448 10.3503 30.6552 12.7602 28.871 12.5348H28.8622C28.0624 12.4394 27.3065 11.8066 26.7792 10.8011C26.1991 9.68283 25.9618 8.20916 26.1376 6.76151C26.4628 4.04823 28.203 1.75972 29.9257 1.75972C30.0048 1.75972 30.0751 1.75972 30.1366 1.76839C31.077 1.87241 31.7977 2.67859 32.2284 3.50211C32.8261 4.62036 33.0546 6.09402 32.8788 7.54168Z" fill="#E0B47B"/>
<path d="M33.7676 21.1687C34.3301 24.5841 37.459 26.1358 40.5703 24.6362C43.5147 23.2058 45.4395 19.539 44.9121 16.3403C44.3584 12.9682 41.2647 11.3472 38.1094 12.8729C35.1651 14.2945 33.2402 17.97 33.7676 21.1687ZM38.8916 14.4245C40.957 13.4277 42.8115 14.3639 43.1807 16.609C43.585 19.0449 42.0557 21.9749 39.7969 23.0671C38.7949 23.5526 37.8106 23.5959 37.0108 23.1885C36.2197 22.7811 35.6836 21.9662 35.499 20.8827C35.1035 18.4468 36.6328 15.5168 38.8916 14.4245Z" fill="#E0B47B"/>
</g>
<defs>
<clipPath id="clip0">
<rect width="45" height="40.6731" fill="white"/>
</clipPath>
</defs>
</svg>
