<svg width="42" height="39" viewBox="0 0 42 39" fill="none" xmlns="http://www.w3.org/2000/svg">
<path d="M32.9073 0.0781164C32.881 0.0781164 32.8459 0.0781164 32.8196 0.0868024L10.5745 2.84025L2.32359 0.11286C2.13946 0.0520585 1.93779 0.0694304 1.76242 0.164976C1.58706 0.260522 1.4643 0.416869 1.42046 0.607961C1.35908 0.833796 0 6.26253 0 9.09415C0 11.9171 1.35908 17.3545 1.42046 17.5803C1.49937 17.893 1.77996 18.1102 2.09562 18.1102C2.17453 18.1102 2.24468 18.1015 2.31482 18.0754L10.5658 15.3481L23.7971 16.9897V34.0663C23.7971 36.7503 25.9891 38.9218 28.6985 38.9218C31.4079 38.9218 33.6 36.7503 33.6 34.0663V18.0754C38.4752 17.702 42.1754 13.5761 41.9825 8.74671C41.8071 3.90863 37.7912 0.0781164 32.9073 0.0781164ZM1.40292 9.09415C1.40292 7.01821 2.23591 3.2485 2.60418 1.66765L9.80292 4.0476V14.1407L2.60418 16.5207C2.23591 14.9398 1.40292 11.1701 1.40292 9.09415ZM11.2058 4.16052L29.4088 1.91086V16.2948L25.6998 15.8345L11.2058 14.0365V4.16052ZM25.2088 25.7365H26.6117V27.1262H25.2088V25.7365ZM26.6029 24.3554H25.2V22.9656H26.6029V24.3554ZM32.2058 34.0576C32.2058 35.9685 30.6363 37.5233 28.7073 37.5233C26.7695 37.5233 25.2088 35.9685 25.2088 34.0576V28.5073H27.3132C27.699 28.5073 28.0146 28.1946 28.0146 27.8124V22.2621C28.0146 21.8799 27.699 21.5672 27.3132 21.5672H25.2088V17.1547L32.2058 18.0233V34.0576ZM32.9511 16.7204L30.8117 16.4512V1.72845L32.9511 1.45919C37.2038 1.45919 40.6497 4.87277 40.6497 9.08547C40.6497 13.3068 37.2038 16.7204 32.9511 16.7204Z" fill="#E6C294"/>
</svg>
