<svg width="43" height="36" viewBox="0 0 43 36" fill="none" xmlns="http://www.w3.org/2000/svg">
<path d="M41.0739 0H1.93724C0.862239 0 0 0.865219 0 1.94393V27.2263C0 28.2938 0.862239 29.159 1.93724 29.1702H16.0354C15.8898 30.7096 15.1732 32.1367 14.0198 33.1592L12.9 34.1593C12.4969 34.5189 12.7544 35.1931 13.2919 35.1931H29.7192C30.2567 35.1931 30.5143 34.5189 30.1112 34.1593L28.9914 33.1592C27.8492 32.1255 27.1213 30.7096 26.9758 29.1702H41.0739C42.1377 29.1702 43 28.305 43.0112 27.2263V1.94393C43 0.865219 42.1377 0 41.0739 0ZM1.17578 1.94393C1.17578 1.52818 1.51172 1.19108 1.93724 1.17984H41.0739C41.4882 1.17984 41.8242 1.51694 41.8354 1.94393V21.5743H1.18698V1.94393H1.17578ZM28.1739 34.002H14.826C16.2034 32.7547 17.0656 31.013 17.2112 29.159H25.7776C25.9343 31.0243 26.7854 32.7547 28.1739 34.002ZM41.8242 27.2263C41.8242 27.642 41.4882 27.9791 41.0627 27.9904H1.93724C1.52292 27.9904 1.18698 27.6533 1.17578 27.2263V22.7541H41.8242V27.2263Z" fill="#E0B47B"/>
<path d="M24.4675 7.74194C24.1428 7.74194 24.1428 7.74194 18.8014 13.1805C18.5774 13.4164 18.5774 13.7872 18.8126 14.012C19.0477 14.2367 19.4172 14.2367 19.6412 14.0007C21.4665 12.1467 24.4339 9.12405 24.8034 8.80942C25.2737 8.4948 25.0498 7.74194 24.4675 7.74194Z" fill="#E0B47B"/>
<path d="M16.6627 8.83203C16.3716 8.83203 16.3716 8.83203 13.1466 12.1131C12.9226 12.3491 12.9226 12.7199 13.1578 12.9446C13.3929 13.1694 13.7625 13.1694 13.9864 12.9334C15.039 11.8659 16.7523 10.113 17.0099 9.88827C17.469 9.55117 17.2338 8.83203 16.6627 8.83203Z" fill="#E0B47B"/>
<path d="M30.1112 8.83203C29.82 8.83203 29.82 8.83203 26.595 12.1131C26.0575 12.6749 26.8862 13.484 27.4349 12.9446C28.4875 11.8771 30.2119 10.1242 30.4583 9.89951C30.9174 9.55117 30.6823 8.83203 30.1112 8.83203Z" fill="#E0B47B"/>
<path d="M22.5869 25.361C22.5869 25.9677 22.0942 26.4621 21.5007 26.4621C20.896 26.4621 20.4033 25.9677 20.4033 25.361C20.4033 24.7542 20.896 24.2598 21.5007 24.2598C22.1054 24.271 22.5869 24.7654 22.5869 25.361Z" fill="#E0B47B"/>
</svg>
