<svg width="40" height="47" viewBox="0 0 40 47" fill="none" xmlns="http://www.w3.org/2000/svg">
<g clip-path="url(#clip0)">
<path d="M34.4238 18.9703C35.7005 18.9703 36.7363 17.9345 36.7363 16.6578C36.7363 15.381 35.7005 14.3452 34.4238 14.3452C33.147 14.3452 32.1112 15.381 32.1112 16.6578C32.1112 17.9345 33.147 18.9703 34.4238 18.9703ZM34.4238 15.7906C34.9055 15.7906 35.291 16.188 35.291 16.6578C35.291 17.1395 34.9055 17.525 34.4238 17.525C33.942 17.525 33.5566 17.1395 33.5566 16.6578C33.5566 16.176 33.942 15.7906 34.4238 15.7906Z" fill="#E0B47B"/>
<path d="M11.8639 29.4248C11.8639 29.8223 11.5387 30.1475 11.1413 30.1475C10.7438 30.1475 10.4186 29.8223 10.4186 29.4248C10.4186 29.0274 10.7438 28.7021 11.1413 28.7021C11.5387 28.7021 11.8639 29.0274 11.8639 29.4248Z" fill="#E0B47B"/>
<path d="M19.9939 42.2645C27.04 42.2645 32.7612 36.5312 32.7612 29.4972C32.7612 22.4511 27.04 16.73 19.9939 16.73C12.9479 16.73 7.22668 22.4511 7.22668 29.4972C7.22668 36.5433 12.9479 42.2645 19.9939 42.2645ZM19.9939 18.1753C26.233 18.1753 31.3158 23.2581 31.3158 29.4972C31.3158 35.7363 26.233 40.8191 19.9939 40.8191C13.7548 40.8191 8.67203 35.7363 8.67203 29.4972C8.67203 23.2581 13.7548 18.1753 19.9939 18.1753Z" fill="#E0B47B"/>
<path d="M37.2177 0H2.6498C1.16832 0 0 1.15628 0 2.63776V43.3845C0 44.9503 1.13219 46.1427 2.6498 46.1427H37.2177C38.7715 46.1427 39.988 44.9262 39.988 43.3845V2.63776C39.988 1.18037 38.7474 0 37.2177 0ZM38.5426 43.3966C38.5426 44.2156 37.8681 44.7094 37.2177 44.7094H2.6498C1.93917 44.7094 1.44535 44.1674 1.44535 43.3966V12.5986H38.5426V43.3966ZM38.5546 11.1533H1.45739V2.63776C1.44535 1.95122 1.96326 1.44535 2.6498 1.44535H37.2177C37.9404 1.44535 38.5426 1.9994 38.5426 2.63776V11.1533H38.5546Z" fill="#E0B47B"/>
<path d="M33.9657 3.96265H28.4252C26.8112 3.96265 25.6549 5.11892 25.6549 6.72085C25.6549 8.22642 26.8473 9.35861 28.4252 9.35861H33.9657C35.5435 9.35861 36.7359 8.22642 36.7359 6.72085C36.7359 5.11892 35.5796 3.96265 33.9657 3.96265ZM33.9657 7.91326H28.4252C27.6423 7.91326 27.1003 7.41944 27.1003 6.72085C27.1003 5.92591 27.6182 5.40799 28.4252 5.40799H33.9657C34.7727 5.40799 35.2906 5.91387 35.2906 6.72085C35.2906 7.41944 34.7486 7.91326 33.9657 7.91326Z" fill="#E0B47B"/>
<path d="M19.3317 21.4635C19.7291 21.4395 20.0303 21.0902 20.0062 20.6927C19.9821 20.2952 19.6328 19.9941 19.2353 20.0182C15.2004 20.2832 11.7918 23.0414 10.7559 26.9077C10.6475 27.2931 10.8764 27.6906 11.2618 27.799C11.322 27.8231 11.3823 27.8231 11.4425 27.8231C11.7556 27.8231 12.0447 27.6063 12.1411 27.2811C13.0324 24.017 15.911 21.6803 19.3317 21.4635Z" fill="#E0B47B"/>
</g>
<defs>
<clipPath id="clip0">
<rect width="40" height="46.1427" fill="white"/>
</clipPath>
</defs>
</svg>
