<svg width="45" height="43" viewBox="0 0 45 43" fill="none" xmlns="http://www.w3.org/2000/svg">
<g clip-path="url(#clip0)">
<path d="M30.3278 37.8509C30.3278 38.9428 31.2184 39.8351 32.3082 39.8351C33.3981 39.8351 34.2887 38.9428 34.2887 37.8509C34.2887 36.7591 33.3981 35.8668 32.3082 35.8668C31.2067 35.8668 30.3278 36.7591 30.3278 37.8509ZM32.9645 37.8509C32.9645 38.2149 32.6715 38.5084 32.3082 38.5084C31.9449 38.5084 31.652 38.2149 31.652 37.8509C31.652 37.487 31.9449 37.1935 32.3082 37.1935C32.6598 37.1935 32.9645 37.487 32.9645 37.8509Z" fill="#E0B47B"/>
<path d="M12.5273 20.0173C7.07813 20.0173 2.63672 24.4669 2.63672 29.9262C2.63672 35.3854 7.07813 39.835 12.5273 39.835C17.9766 39.835 22.418 35.3854 22.418 29.9262C22.418 24.4669 17.9766 20.0173 12.5273 20.0173ZM12.5273 38.5084C7.80469 38.5084 3.96094 34.6575 3.96094 29.9262C3.96094 25.1948 7.80469 21.344 12.5273 21.344C17.25 21.344 21.0938 25.1948 21.0938 29.9262C21.0938 34.6575 17.25 38.5084 12.5273 38.5084Z" fill="#E0B47B"/>
<path d="M12.5271 27.2845C11.074 27.2845 9.89038 28.4703 9.89038 29.9261C9.89038 31.3819 11.074 32.5677 12.5271 32.5677C13.9802 32.5677 15.1638 31.3819 15.1638 29.9261C15.1638 28.4703 13.9802 27.2845 12.5271 27.2845ZM12.5271 31.241C11.8005 31.241 11.2029 30.654 11.2029 29.9144C11.2029 29.1747 11.7888 28.5877 12.5271 28.5877C13.2537 28.5877 13.8513 29.1747 13.8513 29.9144C13.8513 30.654 13.2537 31.241 12.5271 31.241Z" fill="#E0B47B"/>
<path d="M44.3437 34.5519H39.082L37.5 26.6389C37.1953 25.1009 35.8359 23.9856 34.2656 23.9856H32.9531V14.0767C32.9531 12.257 31.4766 10.7777 29.6602 10.7777H27.6211C27.3164 9.27492 25.9805 8.13611 24.3867 8.13611H14.4961V3.33431C14.4961 1.51456 13.0195 0.0352783 11.2031 0.0352783H1.98047C1.41797 0.0352783 0.878906 0.281825 0.503906 0.704477C0.128906 1.12713 -0.046875 1.69067 0.0234375 2.2542C0.128906 3.24039 0.996094 3.99177 2.01562 3.99177H10.5469V17.5284C4.58203 18.4793 0 23.6686 0 29.9144C0 36.8295 5.61328 42.4648 12.5273 42.4648C19.4414 42.4648 25.0547 36.8412 25.0547 29.9144C25.0547 28.2825 24.7383 26.7211 24.1758 25.2887H31.6406V29.257H27.0234C26.6602 29.257 26.3672 29.5505 26.3672 29.9144C26.3672 30.2784 26.6602 30.5719 27.0234 30.5719H31.6406V33.2604C29.4023 33.5774 27.6797 35.5146 27.6797 37.8391C27.6797 40.3868 29.7539 42.4648 32.2969 42.4648C34.8398 42.4648 36.9141 40.3868 36.9141 37.8391C36.9141 35.5146 35.1914 33.5891 32.9531 33.2604V25.2887H34.2656C35.2031 25.2887 36.0234 25.9579 36.1992 26.8854L37.8867 35.315C37.8867 35.3267 37.8867 35.3267 37.8867 35.3385L38.4141 37.9683C38.4727 38.2735 38.7422 38.4966 39.0586 38.4966H44.332C44.6953 38.4966 44.9883 38.2031 44.9883 37.8391V35.1976C45 34.8454 44.707 34.5519 44.3437 34.5519ZM35.6016 37.8509C35.6016 39.6706 34.125 41.1499 32.3086 41.1499C30.4922 41.1499 29.0156 39.6706 29.0156 37.8509C29.0156 36.0311 30.4922 34.5519 32.3086 34.5519C34.1133 34.5519 35.6016 36.0311 35.6016 37.8509ZM24.3867 9.45102C25.2422 9.45102 25.9805 10.0028 26.25 10.7777H14.5078V9.45102H24.3867ZM2.01562 2.67685C1.66406 2.67685 1.37109 2.41857 1.32422 2.10158C1.30078 1.91373 1.35937 1.72589 1.48828 1.585C1.61719 1.44412 1.79297 1.36194 1.98047 1.36194H10.5469V2.68859H2.01562V2.67685ZM11.8594 1.4676C12.6211 1.73763 13.1836 2.47727 13.1836 3.33431V17.3992C12.9609 17.3875 12.75 17.3875 12.5273 17.3875C12.3047 17.3875 12.082 17.3992 11.8711 17.3992V1.4676H11.8594ZM12.5273 41.1499C6.35156 41.1499 1.32422 36.1133 1.32422 29.9262C1.32422 23.739 6.35156 18.7024 12.5273 18.7024C18.7031 18.7024 23.7305 23.739 23.7305 29.9262C23.7305 36.1133 18.7031 41.1499 12.5273 41.1499ZM23.5547 23.9856C21.7383 20.6161 18.4219 18.1623 14.5078 17.5401V16.0608H27.0352C27.3984 16.0608 27.6914 15.7673 27.6914 15.4034C27.6914 15.0394 27.3984 14.7459 27.0352 14.7459H14.5078V12.0926H29.6719C30.7617 12.0926 31.6523 12.9849 31.6523 14.0767V14.7342H29.6719C29.3086 14.7342 29.0156 15.0277 29.0156 15.3916C29.0156 15.7556 29.3086 16.0491 29.6719 16.0491H31.6406V23.9738H23.5547V23.9856ZM43.6875 37.1934H39.6094L39.3398 35.8668H43.6758V37.1934H43.6875Z" fill="#E0B47B"/>
</g>
<defs>
<clipPath id="clip0">
<rect width="45" height="42.5" fill="white"/>
</clipPath>
</defs>
</svg>
