<svg width="45" height="45" viewBox="0 0 45 45" fill="none" xmlns="http://www.w3.org/2000/svg">
<g clip-path="url(#clip0)">
<path d="M44.7 15.6C38.9 9.79998 31.2 6.59998 23 6.59998C14.8 6.59998 7.09995 9.79998 1.29995 15.6C0.999951 15.9 0.999951 16.4 1.29995 16.7C1.59995 17 2.09995 17 2.39995 16.7C7.89995 11.2 15.2 8.19998 23 8.19998C30.7999 8.19998 38.0999 11.2 43.5999 16.7C43.7999 16.9 44 16.9 44.2 16.9C44.4 16.9 44.5999 16.8 44.7999 16.7C45 16.4 45 15.9 44.7 15.6Z" fill="#E0B47B"/>
<path d="M5.90005 20.3C5.60005 20.6 5.60005 21.1 5.90005 21.4C6.10005 21.6 6.30005 21.6 6.50005 21.6C6.70005 21.6 6.90005 21.5 7.10005 21.4C15.9 12.6 30.1001 12.6 38.9001 21.4C39.2001 21.7 39.7001 21.7 40 21.4C40.3 21.1 40.3 20.6 40 20.3C30.6 10.9 15.3 10.9 5.90005 20.3Z" fill="#E0B47B"/>
<path d="M22.9999 19.9C18.2999 19.9 13.9999 21.7 10.6999 25C10.3999 25.3 10.3999 25.8 10.6999 26.1C10.9999 26.4 11.4999 26.4 11.7999 26.1C14.7999 23.1 18.7999 21.5 22.9999 21.5C27.1999 21.5 31.1999 23.1 34.1999 26.1C34.3999 26.3 34.5999 26.3 34.7999 26.3C34.9999 26.3 35.1999 26.2 35.3999 26.1C35.6999 25.8 35.6999 25.3 35.3999 25C31.9999 21.7 27.5999 19.9 22.9999 19.9Z" fill="#E0B47B"/>
<path d="M23 27.4C20.1 27.4 17.8 29.8 17.8 32.6C17.8 35.5 20.2 37.8 23 37.8C25.9 37.8 28.2001 35.4 28.2001 32.6C28.2001 29.8 25.9 27.4 23 27.4ZM23 36.3C21 36.3 19.4 34.7 19.4 32.7C19.4 30.7 21 29.1 23 29.1C25 29.1 26.6 30.7 26.6 32.7C26.6 34.7 25 36.3 23 36.3Z" fill="#E0B47B"/>
</g>
<defs>
<clipPath id="clip0">
<rect x="1" y="6" width="43.9" height="32.9" fill="white"/>
</clipPath>
</defs>
</svg>
